<?xml version="1.0" encoding="utf-8"?>
<!-- Generator: Adobe Illustrator 16.0.0, SVG Export Plug-In . SVG Version: 6.00 Build 0)  -->
<!DOCTYPE svg PUBLIC "-//W3C//DTD SVG 1.1//EN" "http://www.w3.org/Graphics/SVG/1.1/DTD/svg11.dtd">
<svg version="1.1" id="Layer_1" xmlns="http://www.w3.org/2000/svg" xmlns:xlink="http://www.w3.org/1999/xlink" x="0px" y="0px"
	 width="3370.39px" height="2383.939px" viewBox="0 0 3370.39 2383.939" enable-background="new 0 0 3370.39 2383.939"
	 xml:space="preserve">
<polyline fill="none" stroke="#010101" stroke-width="0.5" stroke-linecap="round" stroke-miterlimit="10" points="
	1338.36,1843.133 1338.36,1843.133 1472.692,1808.889 1533.186,1822.079 1556.912,1859.002 1630.749,1811.567 1667.518,1787.835 
	1728.165,1801.026 1825.567,1790.514 1849.298,1827.277 1909.793,1840.468 1933.509,1877.391 1957.226,1914.312 2030.927,1866.863 
	2067.848,1843.133 "/>
<polyline fill="none" stroke="#010101" stroke-width="0.5" stroke-linecap="round" stroke-miterlimit="10" points="
	2067.848,437.563 2067.848,437.563 2133.815,696.286 2108.462,813.126 2037.441,858.788 2128.777,1000.829 2174.443,1071.85 
	2149.092,1188.538 2169.261,1376.248 2098.227,1421.914 2072.887,1538.748 2001.853,1584.417 1930.846,1630.084 2022.181,1772.126 
	2067.848,1843.133 "/>
<polyline fill="none" stroke="#010101" stroke-width="0.5" stroke-linecap="round" stroke-miterlimit="10" points="1338.36,437.861 
	1338.36,437.861 1375.283,414.137 1448.969,366.688 1472.692,403.61 1496.417,440.524 1556.912,453.579 1580.636,490.493 
	1678.045,479.821 1738.676,493.013 1775.6,469.296 1849.298,421.846 1873.016,458.769 1933.509,471.814 2067.848,437.563 "/>
<polyline fill="none" stroke="#010101" stroke-width="0.5" stroke-linecap="round" stroke-miterlimit="10" points="
	1337.623,437.563 1337.623,437.563 1383.435,508.585 1474.77,650.619 1403.75,696.286 1332.728,741.955 1307.376,858.788 
	1236.354,904.455 1256.813,1092.164 1231.459,1208.854 1277.128,1279.874 1368.608,1421.914 1297.588,1467.728 1272.234,1584.417 
	1338.36,1843.133 "/>
<polyline fill="none" stroke="#010101" stroke-width="0.5" stroke-linecap="round" stroke-miterlimit="10" points="
	1338.36,1843.133 1338.36,1843.133 1272.386,1584.417 1297.739,1467.728 1368.76,1422.061 1277.424,1280.019 1231.758,1208.998 
	1257.263,1092.309 1236.948,904.606 1307.968,858.94 1333.322,742.251 1404.342,696.584 1475.364,650.922 1384.029,508.882 
	1338.36,437.861 "/>
<polyline fill="none" stroke="#010101" stroke-width="0.5" stroke-linecap="round" stroke-miterlimit="10" points="
	1338.36,1843.133 1338.36,1843.133 1272.386,1584.417 1297.739,1467.728 1368.76,1422.061 1277.424,1280.019 1231.758,1208.998 
	1257.263,1092.309 1236.948,904.606 1307.968,858.94 1333.322,742.251 1404.342,696.584 1475.364,650.922 1384.029,508.882 
	1338.36,437.861 "/>
<polyline fill="none" stroke="#010101" stroke-width="0.5" stroke-linecap="round" stroke-miterlimit="10" points="
	1472.692,1808.889 1472.692,1808.889 1389.219,1556.688 1406.421,1439.103 1473.735,1388.846 1373.206,1254.23 1322.939,1186.902 
	1339.99,1069.331 1306.933,884.445 1374.241,834.181 1391.29,716.601 1458.604,666.488 1525.918,616.224 1425.396,481.595 
	1375.283,414.137 "/>
<polyline fill="none" stroke="#010101" stroke-width="0.5" stroke-linecap="round" stroke-miterlimit="10" points="
	1533.186,1822.079 1533.186,1822.079 1438.146,1570.327 1450.307,1450.525 1516.434,1396.852 1408.94,1264.742 1355.265,1198.775 
	1367.421,1078.967 1326.054,893.191 1392.036,839.516 1404.342,719.714 1470.317,666.04 1536.445,612.22 1428.95,480.264 
	1375.283,414.137 "/>
<polyline fill="none" stroke="#010101" stroke-width="0.5" stroke-linecap="round" stroke-miterlimit="10" points="
	1556.912,1859.002 1556.912,1859.002 1467.06,1589.311 1484.999,1463.428 1556.912,1409.447 1448.969,1265.642 1394.997,1193.737 
	1413.088,1067.846 1377.056,870.211 1448.969,816.241 1466.908,690.357 1538.819,636.385 1610.73,582.422 1502.94,438.599 
	1448.969,366.688 "/>
<polyline fill="none" stroke="#010101" stroke-width="0.5" stroke-linecap="round" stroke-miterlimit="10" points="
	1630.749,1811.567 1630.749,1811.567 1535.562,1559.802 1547.868,1440 1613.843,1386.325 1506.35,1254.23 1452.674,1188.235 
	1464.982,1068.44 1423.47,882.664 1489.445,828.844 1501.751,709.188 1567.88,655.369 1633.861,601.693 1526.366,469.585 
	1472.692,403.61 "/>
<polyline fill="none" stroke="#010101" stroke-width="0.5" stroke-linecap="round" stroke-miterlimit="10" points="
	1667.518,1787.835 1667.518,1787.835 1566.691,1542.166 1575.444,1423.695 1639.196,1368.834 1529.48,1241.619 1474.618,1178.012 
	1483.516,1059.543 1437.406,877.474 1501.015,822.611 1509.905,704.148 1573.511,649.288 1637.119,594.577 1527.555,467.218 
	1472.692,403.61 "/>
<polyline fill="none" stroke="#010101" stroke-width="0.5" stroke-linecap="round" stroke-miterlimit="10" points="
	1728.165,1801.026 1728.165,1801.026 1615.473,1555.646 1619.476,1435.106 1681.897,1376.842 1565.215,1252.146 1506.943,1189.726 
	1510.947,1069.187 1456.533,886.219 1518.954,827.802 1522.957,707.263 1585.225,648.845 1647.646,590.574 1530.964,465.878 
	1472.692,403.61 "/>
<polyline fill="none" stroke="#010101" stroke-width="0.5" stroke-linecap="round" stroke-miterlimit="10" points="
	1728.165,1801.026 1728.165,1801.026 1615.473,1555.646 1619.476,1435.106 1681.897,1376.842 1565.215,1252.146 1506.943,1189.726 
	1510.947,1069.187 1456.533,886.219 1518.954,827.802 1522.957,707.263 1585.225,648.845 1647.646,590.574 1530.964,465.878 
	1472.692,403.61 "/>
<polyline fill="none" stroke="#010101" stroke-width="0.5" stroke-linecap="round" stroke-miterlimit="10" points="
	1825.567,1790.514 1825.567,1790.514 1701.617,1557.427 1698.656,1439.262 1756.182,1378.768 1635.193,1263.7 1574.698,1206.188 
	1571.738,1088.161 1508.275,912.615 1565.809,852.12 1562.841,734.1 1620.366,673.604 1677.892,613.111 1556.912,498.059 
	1496.417,440.524 "/>
<polyline fill="none" stroke="#010101" stroke-width="0.5" stroke-linecap="round" stroke-miterlimit="10" points="
	1849.298,1827.277 1849.298,1827.277 1730.973,1588.122 1731.567,1468.756 1791.468,1409.447 1672.557,1289.503 1613.25,1229.616 
	1613.691,1110.249 1554.833,930.996 1614.733,871.544 1615.328,752.184 1675.229,692.877 1735.129,633.426 1616.363,513.471 
	1556.912,453.579 "/>
<polyline fill="none" stroke="#010101" stroke-width="0.5" stroke-linecap="round" stroke-miterlimit="10" points="
	1909.793,1840.468 1909.793,1840.468 1785.835,1607.395 1782.867,1489.374 1840.395,1428.879 1719.412,1313.828 1658.917,1256.287 
	1655.949,1138.274 1592.494,962.575 1650.02,902.088 1647.052,784.061 1704.586,723.572 1762.104,663.079 1641.122,548.02 
	1580.636,490.493 "/>
<polyline fill="none" stroke="#010101" stroke-width="0.5" stroke-linecap="round" stroke-miterlimit="10" points="
	1933.509,1877.391 1933.509,1877.391 1820.977,1632.01 1824.973,1511.471 1887.248,1453.046 1770.561,1328.51 1712.296,1266.075 
	1716.299,1145.39 1662.03,962.43 1724.313,904.159 1728.454,783.473 1790.729,725.202 1853.006,666.931 1736.461,542.242 
	1678.045,479.821 "/>
<polyline fill="none" stroke="#010101" stroke-width="0.5" stroke-linecap="round" stroke-miterlimit="10" points="
	1933.509,1877.391 1933.509,1877.391 1820.977,1632.01 1824.973,1511.471 1887.248,1453.046 1770.561,1328.51 1712.296,1266.075 
	1716.299,1145.39 1662.03,962.43 1724.313,904.159 1728.454,783.473 1790.729,725.202 1853.006,666.931 1736.461,542.242 
	1678.045,479.821 "/>
<polyline fill="none" stroke="#010101" stroke-width="0.5" stroke-linecap="round" stroke-miterlimit="10" points="
	1933.509,1877.391 1933.509,1877.391 1832.69,1631.706 1841.436,1513.236 1905.188,1458.39 1795.465,1331.029 1740.616,1267.407 
	1749.507,1148.952 1703.396,966.876 1767.143,912.021 1775.902,793.551 1839.51,738.697 1903.118,683.979 1793.553,556.619 
	1738.676,493.013 "/>
<polyline fill="none" stroke="#010101" stroke-width="0.5" stroke-linecap="round" stroke-miterlimit="10" points="
	1933.509,1877.391 1933.509,1877.391 1838.323,1625.479 1850.63,1505.822 1916.756,1452.018 1809.263,1320.054 1755.442,1253.928 
	1767.751,1134.126 1726.37,948.342 1792.365,894.674 1804.674,774.872 1870.64,721.199 1936.768,667.379 1829.272,535.271 
	1775.6,469.296 "/>
<polyline fill="none" stroke="#010101" stroke-width="0.5" stroke-linecap="round" stroke-miterlimit="10" points="
	1957.226,1914.312 1957.226,1914.312 1867.383,1644.607 1885.322,1518.738 1957.226,1464.76 1849.298,1320.951 1795.32,1249.033 
	1813.273,1123.149 1777.381,925.362 1849.298,871.391 1867.224,745.517 1939.142,691.545 2011.062,637.574 1903.263,493.759 
	1849.298,421.846 "/>
<polyline fill="none" stroke="#010101" stroke-width="0.5" stroke-linecap="round" stroke-miterlimit="10" points="
	2030.927,1866.863 2030.927,1866.863 1935.739,1614.953 1948.046,1495.311 2014.158,1441.477 1906.665,1309.368 1852.86,1243.4 
	1865.167,1123.599 1823.786,937.815 1889.768,884.14 1902.074,764.347 1968.202,710.52 2034.184,656.852 1926.69,524.744 
	1873.016,458.769 "/>
<polyline fill="none" stroke="#010101" stroke-width="0.5" stroke-linecap="round" stroke-miterlimit="10" points="
	2030.927,1866.863 2030.927,1866.863 1947.598,1614.504 1964.641,1496.934 2031.969,1446.82 1931.424,1312.047 1881.327,1244.732 
	1898.369,1127.154 1865.167,942.269 1932.467,892.002 1949.669,774.424 2016.982,724.167 2084.297,673.902 1983.781,539.274 
	1933.509,471.814 "/>
<polyline fill="none" stroke="#010101" stroke-width="0.5" stroke-linecap="round" stroke-miterlimit="10" points="
	2067.848,1843.133 2067.848,1843.133 2001.853,1584.417 2027.22,1467.569 2098.227,1421.914 2006.904,1279.874 1961.238,1208.854 
	1986.59,1092.164 1966.421,904.455 2037.441,858.788 2062.795,741.955 2133.815,696.286 2204.836,650.619 2113.516,508.585 
	2067.848,437.563 "/>
<polyline fill="none" stroke="#010101" stroke-width="0.5" stroke-linecap="round" stroke-miterlimit="10" points="
	2067.848,1843.133 2067.848,1843.133 2001.853,1584.417 2027.22,1467.569 2098.227,1421.914 2006.904,1279.874 1961.238,1208.854 
	1986.59,1092.164 1966.421,904.455 2037.441,858.788 2062.795,741.955 2133.815,696.286 2204.836,650.619 2113.516,508.585 
	2067.848,437.563 "/>
</svg>
