<?xml version="1.0" encoding="utf-8"?>
<!-- Generator: Adobe Illustrator 16.0.0, SVG Export Plug-In . SVG Version: 6.00 Build 0)  -->
<!DOCTYPE svg PUBLIC "-//W3C//DTD SVG 1.1//EN" "http://www.w3.org/Graphics/SVG/1.1/DTD/svg11.dtd">
<svg version="1.1" id="Layer_1" xmlns="http://www.w3.org/2000/svg" xmlns:xlink="http://www.w3.org/1999/xlink" x="0px" y="0px"
	 width="3370.39px" height="2383.939px" viewBox="0 0 3370.39 2383.939" enable-background="new 0 0 3370.39 2383.939"
	 xml:space="preserve">
<polyline fill="none" stroke="#000000" stroke-width="0.1" stroke-linecap="round" stroke-miterlimit="10" points="
	1163.462,2007.066 1163.462,2007.066 1162.172,2006.425 1166.813,2009.706 1191.857,2030.821 1236.668,2059.866 1280.837,2076.35 
	1324.365,2090.833 1367.184,2104.676 1408.781,2115.238 1448.959,2127.081 1487.848,2131.722 1525.446,2131.722 1561.702,2131.08 
	1595.378,2125.799 1628.985,2121.808 1658.671,2113.238 1695.56,2107.317 1696.208,2105.966 1700.199,2102.036 1704.833,2098.755 
	1715.332,2096.755 1729.816,2095.473 1750.291,2090.833 1775.336,2085.553 1798.459,2082.271 1816.873,2080.921 1830.715,2077.632 
	1843.27,2073.709 1854.471,2071.71 1861.683,2067.077 1869.664,2064.438 1873.595,2061.796 1879.518,2059.866 1887.438,2054.586 
	1894.008,2053.235 1901.28,2049.945 1907.21,2047.306 1912.483,2044.664 1918.412,2042.032 1924.335,2039.392 1928.326,2037.392 
	1934.896,2033.462 1940.818,2030.821 1946.808,2026.899 1951.38,2022.908 1956.012,2019.62 1959.942,2017.628 1965.223,2013.697 
	1967.862,2010.416 1974.494,2007.066 "/>
<polyline fill="none" stroke="#000000" stroke-width="0.1" stroke-linecap="round" stroke-miterlimit="10" points="
	1974.494,444.494 1974.494,444.494 1976.426,456.986 1988.978,545.325 2009.391,690.394 2026.517,872.358 2012.032,1078.72 
	1990.268,1280.511 1965.862,1464.468 1936.248,1626.019 1915.125,1755.246 1902.631,1843.583 1889.438,1891.042 1888.087,1908.876 
	1888.729,1914.798 1893.359,1920.72 1898.641,1931.281 1905.211,1939.202 1909.844,1947.765 1914.482,1952.335 1919.115,1958.967 
	1921.054,1962.249 1923.693,1965.538 1927.616,1968.819 1929.615,1972.169 1931.607,1973.459 1934.248,1976.74 1937.537,1978.09 
	1940.177,1981.372 1944.1,1982.73 1946.099,1984.013 1950.089,1987.301 1954.02,1991.935 1958.011,1993.224 1961.934,1995.863 
	1964.573,1999.213 1967.862,2000.495 1972.495,2003.785 1974.494,2005.136 1976.426,2007.066 1978.417,2010.416 1980.416,2009.706 
	1980.416,2011.698 1982.347,2013.058 1983.057,2014.986 1982.347,2013.058 1980.416,2011.698 1980.416,2009.706 1978.417,2010.416 
	1978.417,2008.417 1976.426,2008.417 1976.426,2007.066 1974.494,2007.066 "/>
<polyline fill="none" stroke="#000000" stroke-width="0.1" stroke-linecap="round" stroke-miterlimit="10" points="
	1163.462,445.143 1163.462,445.143 1170.094,441.151 1172.734,437.863 1178.015,434.582 1181.937,431.941 1186.577,428.659 
	1191.148,425.37 1197.138,420.738 1203.06,418.098 1209.623,414.816 1213.622,412.176 1219.543,409.536 1224.824,407.536 
	1230.746,404.896 1236.668,402.256 1243.948,398.333 1250.511,396.975 1258.432,392.404 1264.354,389.764 1268.283,387.772 
	1275.557,384.491 1283.477,379.851 1294.68,377.852 1307.241,373.929 1321.083,370.64 1339.498,369.289 1362.612,366.649 
	1387.017,361.368 1408.132,356.095 1421.914,355.446 1433.117,353.454 1437.756,350.166 1441.748,345.594 1442.389,344.244 
	1479.286,338.322 1508.963,329.759 1542.578,325.761 1576.254,321.19 1612.503,319.839 1650.108,319.839 1688.996,324.479 
	1729.176,336.322 1770.765,346.884 1813.584,360.727 1857.111,375.211 1901.28,391.702 1946.099,420.738 1971.145,441.854 
	1975.776,445.143 1974.494,444.494 "/>
<polyline fill="none" stroke="#000000" stroke-width="0.1" stroke-linecap="round" stroke-miterlimit="10" points="
	1164.172,444.494 1164.172,444.494 1162.172,444.494 1162.172,443.144 1160.173,443.144 1160.173,441.151 1158.182,441.854 
	1158.182,439.862 1156.251,438.511 1156.251,436.573 1156.251,438.511 1158.182,439.862 1158.182,441.854 1160.173,441.151 
	1162.172,444.494 1164.813,446.425 1166.813,447.784 1170.734,451.065 1174.023,452.354 1176.656,455.697 1180.655,458.337 
	1184.577,459.626 1188.569,464.267 1192.499,467.548 1195.139,468.838 1198.421,470.188 1201.061,473.47 1204.35,474.82 
	1206.99,478.109 1208.982,479.392 1210.981,482.742 1215.552,486.023 1217.544,489.312 1219.543,492.594 1224.114,499.225 
	1228.747,503.796 1233.387,512.358 1239.957,520.279 1245.23,530.841 1249.869,537.411 1250.511,542.685 1249.229,560.526 
	1236.026,607.977 1223.474,696.315 1201.709,825.541 1172.734,987.092 1147.688,1171.05 1125.924,1372.841 1112.082,1579.209 
	1128.564,1761.167 1148.971,1906.235 1161.532,1994.574 1163.462,2007.066 "/>
<polyline fill="none" stroke="#000000" stroke-width="0.1" stroke-linecap="round" stroke-miterlimit="10" points="
	1163.462,2007.066 1163.462,2007.066 1161.532,2009.065 1168.743,2000.495 1209.623,1952.335 1265.002,1865.988 1296.679,1781.581 
	1325.006,1697.233 1351.41,1614.816 1371.823,1535.04 1394.229,1457.195 1403.5,1382.691 1403.5,1310.196 1401.501,1240.272 
	1392.298,1174.338 1385.018,1111.039 1368.534,1053.675 1356.691,982.461 1354.691,980.53 1346.129,973.898 1339.498,964.688 
	1335.568,943.564 1333.576,916.527 1324.365,876.349 1314.452,828.182 1308.523,784.012 1305.89,749.054 1299.961,722.07 
	1292.039,697.673 1288.117,676.551 1278.845,661.417 1274.274,646.224 1269.634,638.951 1264.354,627.741 1255.792,612.616 
	1252.51,599.415 1245.23,586.213 1240.598,575.01 1236.026,563.808 1230.746,552.605 1226.106,540.753 1221.535,533.481 
	1214.903,520.279 1209.623,509.076 1201.061,498.515 1194.498,489.312 1187.866,480.102 1183.295,472.18 1176.656,462.908 
	1170.734,457.636 1163.462,445.143 "/>
<polyline fill="none" stroke="#000000" stroke-width="0.1" stroke-linecap="round" stroke-miterlimit="10" points="
	1162.172,2006.425 1162.172,2006.425 1160.882,2008.417 1167.453,1999.854 1208.341,1951.693 1263.713,1865.348 1296.038,1780.932 
	1323.725,1696.523 1350.059,1614.106 1370.534,1535.04 1393.58,1456.546 1402.852,1382.052 1402.852,1310.196 1400.86,1239.623 
	1391.649,1174.338 1384.376,1110.397 1367.893,1053.675 1355.981,982.461 1354.05,980.53 1345.488,973.25 1338.856,964.046 
	1335.568,942.923 1332.927,915.879 1323.725,875.701 1314.452,828.182 1308.523,783.371 1305.89,749.054 1299.319,722.07 
	1291.398,697.673 1288.117,676.551 1278.845,661.417 1273.564,646.224 1268.994,638.951 1264.354,627.741 1255.15,612.616 
	1252.51,599.415 1245.23,586.213 1240.598,575.01 1236.026,563.808 1230.746,552.605 1226.106,540.753 1221.535,533.481 
	1214.903,520.279 1209.623,509.076 1201.061,498.515 1194.498,489.312 1187.866,480.102 1183.295,472.18 1176.656,462.908 
	1170.734,457.636 1163.462,445.143 "/>
<polyline fill="none" stroke="#000000" stroke-width="0.1" stroke-linecap="round" stroke-miterlimit="10" points="
	1166.813,2009.706 1166.813,2009.706 1164.813,2011.698 1172.085,2003.785 1212.912,1954.976 1268.994,1868.63 1301.25,1783.571 
	1329.646,1699.163 1355.981,1616.748 1377.096,1536.323 1400.15,1458.546 1409.422,1383.341 1409.422,1310.837 1407.43,1240.272 
	1398.219,1174.338 1390.947,1110.397 1374.463,1053.026 1363.253,981.812 1360.613,979.82 1352.7,972.609 1346.129,963.337 
	1342.199,942.283 1340.207,915.238 1330.936,874.351 1321.083,826.25 1315.803,782.021 1312.521,747.124 1306.531,720.078 
	1298.679,695.033 1294.68,673.91 1286.118,658.777 1280.837,643.583 1276.266,636.311 1271.634,625.108 1262.362,609.977 
	1259.073,596.774 1252.51,583.572 1247.229,571.729 1242.589,560.526 1238.019,549.324 1232.745,538.113 1228.747,530.2 
	1221.535,517.639 1216.903,505.795 1207.631,495.233 1201.061,486.023 1194.498,476.751 1189.858,468.838 1183.295,459.626 
	1177.366,454.346 1170.094,441.151 "/>
<polyline fill="none" stroke="#000000" stroke-width="0.1" stroke-linecap="round" stroke-miterlimit="10" points="
	1191.857,2030.821 1191.857,2030.821 1189.858,2033.462 1197.138,2024.259 1238.019,1974.809 1293.398,1885.761 1325.006,1799.415 
	1352.7,1713.007 1378.455,1628.66 1398.219,1547.525 1420.624,1467.749 1429.187,1391.263 1428.546,1317.407 1425.264,1246.193 
	1415.344,1179.611 1406.781,1114.327 1389.657,1056.315 1376.456,983.811 1374.463,982.461 1365.894,975.249 1358.682,965.977 
	1354.691,944.274 1352.051,916.527 1342.199,875.701 1331.645,826.899 1325.006,782.021 1321.725,746.475 1315.162,718.728 
	1307.241,693.675 1303.25,672.62 1293.398,657.426 1288.117,642.294 1283.477,634.381 1278.196,623.17 1268.994,607.977 
	1265.712,594.133 1258.432,580.932 1253.151,569.729 1248.519,558.526 1243.299,546.684 1238.019,535.473 1233.387,527.56 
	1226.106,514.358 1220.833,503.155 1212.264,491.952 1205.052,482.742 1198.421,473.47 1193.85,465.549 1186.577,456.345 
	1179.945,451.065 1172.734,437.863 "/>
<polyline fill="none" stroke="#000000" stroke-width="0.1" stroke-linecap="round" stroke-miterlimit="10" points="
	1236.668,2059.866 1236.668,2059.866 1234.676,2061.796 1241.949,2053.235 1282.836,2001.145 1336.918,1908.876 1366.543,1819.828 
	1392.938,1731.481 1417.343,1644.434 1435.818,1560.728 1456.231,1478.951 1462.802,1400.533 1460.161,1325.97 1455.591,1252.825 
	1443.03,1184.892 1433.117,1118.959 1414.062,1060.306 1398.86,986.452 1396.869,985.101 1387.658,977.889 1380.386,968.618 
	1375.814,946.854 1372.464,918.519 1361.262,876.99 1349.411,827.541 1341.489,781.372 1337.567,745.765 1330.287,718.079 
	1321.083,692.392 1316.444,670.628 1306.531,655.435 1300.609,639.653 1295.329,632.381 1290.048,620.53 1280.196,605.336 
	1276.266,592.135 1268.283,578.292 1263.071,567.089 1257.791,555.245 1251.801,544.043 1246.588,532.191 1241.949,524.919 
	1234.027,511.076 1228.747,499.874 1218.833,488.664 1211.622,479.392 1204.35,470.188 1199.779,462.267 1192.499,453.057 
	1185.227,447.784 1178.015,434.582 "/>
<polyline fill="none" stroke="#000000" stroke-width="0.1" stroke-linecap="round" stroke-miterlimit="10" points="
	1280.837,2076.35 1280.837,2076.35 1278.845,2078.279 1286.118,2069.068 1325.716,2015.697 1378.455,1921.368 1406.781,1830.382 
	1430.545,1740.052 1452.95,1651.706 1470.074,1566.648 1488.557,1482.95 1493.838,1403.814 1489.198,1327.962 1482.567,1254.114 
	1468.785,1185.541 1456.88,1118.959 1435.818,1060.306 1419.335,985.803 1416.633,983.811 1407.43,977.241 1400.15,967.969 
	1394.938,946.205 1390.298,917.237 1378.455,875.701 1364.611,826.25 1355.981,779.441 1350.7,743.125 1342.848,715.439 
	1332.927,689.752 1327.646,667.988 1317.093,652.794 1310.522,637.013 1305.241,629.741 1299.319,617.897 1289.406,602.696 
	1284.767,588.854 1276.915,575.65 1270.985,564.448 1265.002,552.605 1259.782,540.753 1253.8,529.551 1248.519,521.63 
	1240.598,508.436 1234.676,497.233 1224.824,486.023 1216.903,476.751 1209.623,467.548 1204.35,460.268 1196.429,450.424 
	1189.858,445.784 1181.937,431.941 "/>
<polyline fill="none" stroke="#000000" stroke-width="0.1" stroke-linecap="round" stroke-miterlimit="10" points="
	1324.365,2090.833 1324.365,2090.833 1322.374,2093.473 1329.646,2083.561 1368.534,2028.831 1419.983,1931.923 1446.318,1838.952 
	1468.785,1746.683 1489.198,1656.986 1504.331,1570.64 1521.523,1485.583 1524.805,1405.105 1518.235,1327.962 1510.321,1254.114 
	1494.479,1184.892 1480.636,1117.678 1458.231,1058.306 1439.749,983.811 1437.108,981.812 1427.195,975.249 1419.983,965.977 
	1414.062,944.274 1408.781,915.238 1395.579,873.06 1381.095,822.908 1371.174,776.801 1364.611,739.843 1355.981,711.517 
	1345.488,686.463 1339.498,664.058 1328.295,648.865 1321.725,633.022 1316.444,625.811 1309.881,613.898 1299.319,599.415 
	1294.68,584.923 1286.118,571.729 1280.196,560.526 1273.564,548.675 1267.643,537.411 1261.713,525.561 1255.792,518.288 
	1247.87,504.445 1241.308,493.235 1231.387,482.032 1223.474,472.829 1215.552,463.618 1210.333,456.345 1202.351,447.134 
	1195.139,441.854 1186.577,428.659 "/>
<polyline fill="none" stroke="#000000" stroke-width="0.1" stroke-linecap="round" stroke-miterlimit="10" points="
	1367.184,2104.676 1367.184,2104.676 1365.253,2106.676 1371.823,2097.403 1410.712,2040.743 1460.161,1941.134 1484.566,1846.864 
	1505.682,1753.246 1524.805,1661.626 1538.007,1573.929 1553.14,1487.521 1555.131,1405.807 1546.569,1328.609 1536.656,1253.466 
	1519.524,1184.252 1504.331,1116.319 1479.995,1057.017 1459.513,981.812 1456.88,979.82 1447.028,973.25 1439.107,964.046 
	1432.476,941.634 1427.195,912.598 1412.704,870.42 1396.869,820.268 1385.666,773.458 1378.455,735.913 1369.183,708.227 
	1357.332,682.472 1351.41,660.067 1340.207,644.935 1332.286,629.099 1327.006,621.819 1320.435,609.977 1309.232,595.484 
	1303.952,581.642 1295.329,567.738 1288.758,556.535 1282.195,544.684 1275.557,533.481 1269.634,521.63 1263.713,514.358 
	1254.501,501.156 1248.519,489.312 1237.316,478.75 1229.395,469.54 1221.535,460.268 1215.552,453.057 1207.631,443.785 
	1200.42,438.511 1191.148,425.37 "/>
<polyline fill="none" stroke="#000000" stroke-width="0.1" stroke-linecap="round" stroke-miterlimit="10" points="
	1408.781,2115.238 1408.781,2115.238 1406.781,2117.878 1413.352,2107.317 1450.951,2049.945 1499.05,1948.405 1522.165,1852.146 
	1541.289,1757.177 1559.062,1664.268 1570.264,1575.218 1584.816,1487.521 1584.176,1405.105 1574.255,1326.679 1563.053,1250.826 
	1543.929,1181.61 1527.446,1113.038 1501.751,1053.675 1479.286,977.889 1476.645,975.891 1466.793,969.968 1458.231,960.758 
	1451.599,938.291 1445.029,909.316 1429.835,866.429 1412.704,816.338 1400.15,768.88 1392.298,731.281 1382.377,702.946 
	1370.534,677.191 1363.253,654.786 1351.41,640.302 1344.13,624.46 1338.208,616.539 1330.936,605.336 1319.733,590.204 
	1314.452,576.361 1305.241,563.167 1297.969,551.254 1291.398,540.051 1284.767,528.201 1277.556,516.356 1272.275,509.076 
	1262.362,495.875 1255.792,484.031 1245.23,473.47 1236.668,464.267 1228.105,455.697 1222.184,447.784 1213.622,439.213 
	1206.342,433.94 1197.138,420.738 "/>
<polyline fill="none" stroke="#000000" stroke-width="0.1" stroke-linecap="round" stroke-miterlimit="10" points="
	1448.959,2127.081 1448.959,2127.081 1447.028,2129.722 1453.591,2119.168 1490.549,2059.866 1537.298,1956.976 1559.062,1859.426 
	1576.254,1762.456 1592.028,1668.838 1602.59,1577.852 1615.143,1489.513 1613.144,1405.807 1601.94,1326.679 1588.747,1250.826 
	1567.685,1180.261 1549.851,1111.687 1522.813,1051.744 1499.05,975.891 1496.479,974.601 1485.917,967.969 1477.354,958.766 
	1470.074,936.353 1462.802,907.316 1447.028,864.437 1428.546,813.698 1415.344,766.247 1406.781,728.641 1395.579,700.313 
	1383.025,674.559 1375.814,651.505 1363.253,637.013 1355.34,621.179 1349.411,613.898 1342.199,602.055 1329.646,587.563 
	1324.365,573.019 1314.452,559.877 1307.881,548.675 1300.609,536.763 1293.398,524.919 1286.118,513.716 1280.196,506.437 
	1270.985,493.235 1263.713,481.391 1252.51,470.829 1243.948,461.626 1234.676,453.057 1228.747,445.143 1220.185,436.573 
	1212.264,431.3 1203.06,418.098 "/>
<polyline fill="none" stroke="#000000" stroke-width="0.1" stroke-linecap="round" stroke-miterlimit="10" points="
	1487.848,2131.722 1487.848,2131.722 1485.917,2134.361 1492.48,2123.8 1528.735,2063.788 1574.255,1958.967 1594.02,1860.067 
	1609.862,1762.456 1624.354,1667.549 1632.916,1575.859 1643.47,1486.231 1640.837,1402.465 1627.635,1323.39 1613.144,1246.193 
	1590.738,1176.33 1571.615,1107.115 1543.288,1047.746 1517.533,971.258 1514.892,969.968 1504.331,963.337 1495.769,954.774 
	1487.848,931.721 1480.636,902.684 1463.512,859.866 1443.678,809.058 1429.835,761.607 1419.983,723.36 1408.781,695.033 
	1395.579,669.277 1387.658,646.865 1375.166,632.381 1366.543,616.539 1360.613,609.327 1353.401,597.415 1340.849,582.931 
	1334.927,568.44 1325.006,555.245 1317.733,544.043 1310.522,532.191 1302.601,520.928 1295.329,509.076 1289.406,501.804 
	1279.555,488.664 1272.275,477.461 1260.432,466.907 1251.159,457.636 1242.589,449.065 1236.026,441.151 1227.464,432.582 
	1219.543,428.011 1209.623,414.816 "/>
<polyline fill="none" stroke="#000000" stroke-width="0.1" stroke-linecap="round" stroke-miterlimit="10" points="
	1525.446,2131.722 1525.446,2131.722 1523.516,2134.361 1530.086,2123.8 1564.983,2062.506 1608.512,1956.327 1626.986,1856.786 
	1640.837,1758.527 1653.39,1662.909 1659.953,1570.64 1669.873,1480.311 1665.234,1395.894 1650.75,1316.759 1634.267,1240.272 
	1611.152,1169.76 1590.097,1101.193 1560.412,1041.823 1533.367,965.329 1530.727,964.046 1520.173,958.117 1510.962,948.845 
	1502.4,926.44 1494.479,897.404 1476.645,854.585 1456.231,803.785 1441.099,756.326 1431.186,718.728 1418.633,690.394 
	1404.79,664.707 1396.869,642.294 1383.667,627.741 1375.166,611.968 1368.534,604.695 1361.262,593.493 1348.129,579.001 
	1342.199,564.448 1331.645,551.254 1324.365,540.051 1316.444,528.842 1309.232,516.998 1301.25,505.795 1295.329,498.515 
	1284.767,485.321 1277.556,474.118 1265.712,463.618 1256.44,454.995 1247.229,445.784 1240.598,438.511 1231.387,429.942 
	1223.474,425.37 1213.622,412.176 "/>
<polyline fill="none" stroke="#000000" stroke-width="0.1" stroke-linecap="round" stroke-miterlimit="10" points="
	1561.702,2131.08 1561.702,2131.08 1560.412,2133.651 1566.334,2122.449 1600.658,2060.507 1642.188,1953.046 1658.671,1852.795 
	1671.164,1753.896 1682.365,1657.635 1687.646,1565.367 1695.56,1474.319 1689.639,1389.972 1673.155,1310.196 1656.03,1233.702 
	1630.916,1163.776 1609.221,1095.204 1578.185,1035.902 1549.851,960.048 1547.21,958.117 1536.656,952.134 1527.446,943.564 
	1518.235,921.159 1509.611,891.482 1491.197,849.305 1469.434,799.213 1453.591,751.045 1443.03,713.508 1429.835,685.112 
	1415.993,660.067 1407.43,637.662 1394.229,623.17 1385.018,607.335 1378.455,600.056 1370.534,588.854 1357.332,574.369 
	1351.41,560.526 1340.849,547.324 1332.927,536.122 1325.006,524.919 1317.093,513.716 1309.232,501.804 1302.601,494.593 
	1292.039,482.032 1284.126,470.829 1272.275,460.268 1263.071,451.706 1253.8,443.144 1247.229,435.871 1238.019,427.301 
	1230.105,422.73 1219.543,409.536 "/>
<polyline fill="none" stroke="#000000" stroke-width="0.1" stroke-linecap="round" stroke-miterlimit="10" points="
	1595.378,2125.799 1595.378,2125.799 1594.02,2128.44 1599.949,2117.878 1633.626,2054.586 1673.803,1946.413 1688.996,1846.225 
	1699.56,1746.683 1708.762,1649.714 1712.691,1557.446 1719.323,1466.468 1712.043,1381.41 1694.277,1302.274 1675.795,1225.78 
	1650.108,1155.917 1626.986,1087.344 1595.378,1028.622 1564.983,952.836 1562.412,951.486 1551.85,945.564 1541.929,937.002 
	1532.727,914.596 1524.164,885.553 1504.331,843.383 1481.926,793.284 1465.442,745.765 1454.24,708.227 1441.099,679.832 
	1426.546,654.786 1417.343,632.381 1403.5,617.897 1394.229,602.696 1387.658,595.484 1379.737,584.221 1365.894,570.378 
	1359.331,555.886 1348.77,543.395 1340.849,532.191 1332.927,520.928 1325.006,509.718 1317.093,498.515 1309.881,491.304 
	1299.319,478.109 1291.398,466.907 1278.845,456.986 1269.634,448.424 1260.432,439.862 1253.8,432.582 1243.948,424.668 
	1236.026,420.09 1224.824,407.536 "/>
<polyline fill="none" stroke="#000000" stroke-width="0.1" stroke-linecap="round" stroke-miterlimit="10" points="
	1628.985,2121.808 1628.985,2121.808 1626.986,2125.089 1632.916,2113.887 1665.234,2050.594 1704.13,1941.134 1717.973,1840.302 
	1727.245,1740.052 1735.097,1643.145 1737.799,1550.166 1742.369,1459.187 1733.808,1374.13 1715.332,1294.994 1695.56,1218.508 
	1668.522,1148.645 1644.118,1080.712 1611.152,1022.059 1580.177,946.854 1577.536,945.564 1566.334,939.642 1557.131,931.08 
	1547.21,908.667 1538.007,879.63 1517.533,838.102 1494.479,787.301 1477.354,740.492 1464.793,702.946 1451.599,674.559 
	1436.467,649.505 1427.195,627.101 1413.352,613.258 1403.5,598.125 1396.869,590.852 1388.307,579.649 1375.166,565.807 
	1367.893,551.957 1357.332,539.403 1348.77,528.201 1340.849,516.998 1332.286,505.795 1324.365,494.593 1317.733,487.313 
	1306.531,474.82 1298.679,463.618 1286.118,453.705 1276.266,445.784 1266.994,437.222 1259.782,429.942 1250.511,421.379 
	1241.949,417.457 1230.746,404.896 "/>
<polyline fill="none" stroke="#000000" stroke-width="0.1" stroke-linecap="round" stroke-miterlimit="10" points="
	1658.671,2113.238 1658.671,2113.238 1656.672,2116.527 1662.594,2105.325 1694.277,2041.383 1731.166,1931.923 1743.728,1830.382 
	1751.58,1730.2 1758.212,1633.23 1758.852,1540.252 1762.782,1448.626 1752.932,1364.217 1733.166,1285.15 1712.043,1209.296 
	1684.357,1140.082 1659.313,1072.15 1625.704,1014.138 1593.379,938.993 1590.738,937.643 1579.536,932.362 1569.623,923.8 
	1560.412,902.036 1550.499,873.06 1529.445,831.47 1505.682,781.372 1487.206,734.562 1474.714,697.024 1460.872,669.277 
	1445.67,644.225 1435.818,621.819 1421.914,607.977 1412.062,592.844 1405.431,586.213 1396.869,575.01 1383.025,561.167 
	1375.814,547.324 1364.611,534.771 1356.691,523.568 1348.129,513.068 1339.498,501.804 1331.645,490.602 1324.365,484.031 
	1313.162,471.479 1305.241,460.268 1292.75,450.424 1282.836,442.502 1272.923,433.94 1266.353,427.301 1256.44,418.739 
	1247.87,414.816 1236.668,402.256 "/>
<polyline fill="none" stroke="#000000" stroke-width="0.1" stroke-linecap="round" stroke-miterlimit="10" points="
	1695.56,2107.317 1695.56,2107.317 1694.277,2109.957 1699.56,2098.755 1729.816,2034.11 1765.492,1924.008 1775.984,1821.82 
	1781.975,1721.569 1787.248,1624.021 1786.547,1531.042 1789.187,1439.422 1777.336,1354.366 1756.22,1275.88 1733.808,1199.384 
	1704.833,1130.81 1678.437,1062.946 1644.118,1005.576 1610.503,931.08 1607.87,929.722 1596.66,924.448 1586.748,915.879 
	1576.254,894.115 1565.693,865.146 1544.57,823.61 1519.524,774.16 1500.4,727.352 1487.206,689.752 1472.715,662.708 
	1456.88,637.662 1447.028,615.898 1432.476,602.055 1422.624,586.861 1415.344,580.291 1406.781,569.088 1392.938,555.886 
	1385.666,542.043 1374.463,529.551 1365.894,518.288 1357.332,507.787 1348.77,496.584 1340.207,486.023 1332.927,478.75 
	1321.725,466.907 1313.162,455.697 1299.961,446.425 1290.048,437.863 1280.196,429.942 1273.564,423.379 1263.713,414.816 
	1255.15,410.818 1243.948,398.333 "/>
<polyline fill="none" stroke="#000000" stroke-width="0.1" stroke-linecap="round" stroke-miterlimit="10" points="
	1695.56,2107.317 1695.56,2107.317 1694.277,2109.957 1699.56,2098.755 1730.526,2034.752 1766.133,1924.008 1776.693,1822.468 
	1783.905,1722.278 1789.187,1624.669 1789.187,1531.69 1791.82,1439.422 1780.617,1355.006 1759.501,1275.88 1737.799,1200.094 
	1708.762,1130.81 1682.365,1062.946 1648.109,1005.576 1615.143,931.08 1612.503,929.722 1601.3,923.8 1591.387,915.879 
	1581.467,893.474 1570.974,864.437 1549.209,823.61 1524.805,773.458 1506.33,726.641 1493.128,689.104 1478.636,662.066 
	1462.802,637.013 1452.95,614.608 1439.107,601.406 1428.546,586.213 1421.914,579.001 1413.352,568.44 1398.86,554.597 
	1392.298,540.753 1380.386,528.201 1371.823,517.639 1363.902,506.437 1355.34,495.233 1346.77,484.672 1339.498,477.461 
	1328.295,465.549 1319.733,454.346 1307.241,445.143 1297.32,436.573 1287.469,428.659 1280.196,421.379 1270.283,413.458 
	1261.713,409.536 1250.511,396.975 "/>
<polyline fill="none" stroke="#000000" stroke-width="0.1" stroke-linecap="round" stroke-miterlimit="10" points="
	1696.208,2105.966 1696.208,2105.966 1694.919,2109.315 1700.199,2098.113 1731.815,2033.462 1768.063,1923.36 1779.266,1821.179 
	1786.547,1720.928 1791.82,1623.379 1792.469,1530.4 1795.75,1438.071 1784.547,1353.717 1764.134,1274.589 1742.369,1198.095 
	1714.043,1128.88 1688.349,1060.947 1654.031,1002.935 1621.064,928.439 1618.424,927.081 1607.222,921.159 1597.309,913.238 
	1587.457,890.833 1576.896,861.858 1555.78,820.268 1531.375,770.818 1512.961,723.36 1499.76,685.761 1485.268,658.075 
	1470.074,633.671 1460.161,611.258 1445.67,597.415 1435.818,582.29 1429.187,575.65 1420.624,564.448 1406.141,550.605 
	1399.509,536.763 1387.658,524.27 1379.737,513.716 1371.174,502.506 1362.612,491.304 1354.05,480.102 1346.77,473.47 
	1335.568,460.978 1327.006,449.775 1314.452,440.503 1304.6,431.941 1294.68,424.02 1288.117,416.809 1278.196,408.887 
	1269.634,404.896 1258.432,392.404 "/>
<polyline fill="none" stroke="#000000" stroke-width="0.1" stroke-linecap="round" stroke-miterlimit="10" points="
	1700.199,2102.036 1700.199,2102.036 1698.85,2104.676 1704.13,2093.473 1735.097,2029.54 1771.414,1918.728 1783.258,1817.188 
	1790.537,1716.997 1796.459,1620.09 1796.459,1526.409 1799.74,1434.782 1789.187,1350.374 1768.773,1271.3 1747.009,1194.813 
	1718.614,1125.59 1692.92,1058.306 1658.671,1000.295 1625.704,925.15 1623.064,923.8 1611.861,918.519 1601.94,909.957 
	1592.028,888.193 1582.176,859.217 1561.053,817.627 1536.656,767.529 1518.235,720.719 1505.041,683.121 1491.197,655.435 
	1475.355,631.091 1465.442,608.625 1451.599,594.775 1441.099,579.649 1434.468,573.019 1425.905,561.808 1412.062,547.965 
	1404.79,534.122 1393.58,521.63 1385.018,511.076 1376.456,499.874 1367.893,488.664 1359.972,477.461 1352.7,470.829 
	1341.489,458.337 1332.927,447.784 1320.435,437.863 1310.522,429.301 1300.609,421.379 1293.398,414.816 1283.477,406.247 
	1275.557,402.256 1264.354,389.764 "/>
<polyline fill="none" stroke="#000000" stroke-width="0.1" stroke-linecap="round" stroke-miterlimit="10" points="
	1704.833,2098.755 1704.833,2098.755 1703.48,2101.395 1708.762,2090.191 1739.737,2025.549 1775.984,1915.438 1787.896,1813.898 
	1794.459,1713.716 1800.389,1616.748 1801.031,1523.77 1803.731,1431.5 1793.178,1347.085 1772.703,1267.958 1750.939,1192.173 
	1722.604,1122.95 1696.85,1055.025 1662.594,997.013 1629.627,922.51 1626.986,921.159 1615.784,915.879 1605.932,907.316 
	1596.02,885.553 1586.106,856.577 1564.983,814.987 1540.647,764.889 1522.165,718.079 1508.963,680.542 1495.12,652.794 
	1479.286,628.451 1469.434,605.985 1454.881,592.135 1445.029,577.009 1438.397,570.378 1429.835,559.167 1415.993,545.325 
	1408.781,531.482 1397.579,519.638 1388.948,508.436 1380.386,497.233 1371.823,486.023 1363.253,475.469 1356.691,468.189 
	1345.488,456.345 1336.918,445.143 1324.365,435.222 1314.452,427.301 1304.6,418.739 1297.32,412.176 1287.469,403.606 
	1279.555,399.615 1268.283,387.772 "/>
<polyline fill="none" stroke="#000000" stroke-width="0.1" stroke-linecap="round" stroke-miterlimit="10" points="
	1715.332,2096.755 1715.332,2096.755 1714.043,2099.396 1719.964,2088.192 1750.939,2023.549 1787.248,1913.447 1798.459,1811.906 
	1805.021,1711.718 1810.943,1614.106 1810.943,1521.189 1814.232,1428.86 1803.029,1344.444 1782.616,1265.316 1760.852,1189.532 
	1731.815,1120.31 1706.122,1052.385 1671.864,994.373 1638.898,919.87 1636.197,918.519 1624.995,912.598 1615.143,904.676 
	1605.229,882.271 1594.668,853.234 1573.614,811.698 1549.209,762.248 1530.727,715.439 1517.533,677.901 1503.041,650.154 
	1487.848,625.108 1477.354,603.344 1463.512,589.501 1453.591,574.369 1446.318,567.738 1437.756,556.535 1423.914,542.685 
	1416.633,528.842 1405.431,516.356 1396.869,505.795 1388.307,494.593 1380.386,483.391 1371.823,472.829 1364.611,465.549 
	1353.401,453.057 1344.778,442.502 1332.286,432.582 1322.374,424.668 1312.521,416.099 1305.241,409.536 1295.329,400.974 
	1287.469,396.975 1275.557,384.491 "/>
<polyline fill="none" stroke="#000000" stroke-width="0.1" stroke-linecap="round" stroke-miterlimit="10" points="
	1729.816,2095.473 1729.816,2095.473 1728.527,2098.113 1733.808,2086.842 1764.782,2022.26 1800.389,1911.516 1811.592,1809.267 
	1818.224,1709.077 1823.504,1611.467 1823.504,1517.848 1826.145,1425.579 1814.942,1341.163 1794.459,1261.388 1772.055,1185.541 
	1743.019,1116.319 1716.683,1048.394 1682.365,990.382 1649.399,915.238 1646.759,913.887 1635.557,908.667 1624.995,900.044 
	1615.143,878.341 1605.229,849.305 1583.466,807.775 1559.062,757.677 1539.999,710.867 1526.804,673.269 1512.252,645.583 
	1496.479,620.53 1486.558,598.773 1472.715,584.923 1462.153,569.729 1455.591,562.518 1447.028,551.957 1432.476,538.113 
	1425.264,524.27 1414.062,511.717 1405.431,501.156 1396.869,489.953 1388.307,478.75 1379.737,467.548 1372.464,460.978 
	1361.262,448.424 1352.7,437.222 1340.207,428.011 1330.287,420.09 1320.435,411.527 1313.162,404.896 1303.25,396.333 
	1294.68,392.404 1283.477,379.851 "/>
<polyline fill="none" stroke="#000000" stroke-width="0.1" stroke-linecap="round" stroke-miterlimit="10" points="
	1750.291,2090.833 1750.291,2090.833 1749.008,2093.473 1754.931,2082.271 1785.258,2017.628 1820.216,1906.235 1830.715,1803.985 
	1836.698,1703.796 1841.918,1606.186 1841.277,1512.566 1843.27,1420.299 1831.425,1335.882 1810.302,1256.755 1787.896,1180.261 
	1758.212,1111.039 1731.815,1043.822 1696.85,985.803 1663.242,911.308 1660.602,909.957 1649.399,904.676 1639.547,896.114 
	1628.985,874.351 1618.424,845.374 1596.66,803.785 1572.264,754.335 1553.14,706.876 1539.297,669.98 1524.805,642.294 
	1508.963,617.187 1499.05,595.484 1484.566,581.642 1474.714,566.448 1467.434,559.877 1458.872,548.675 1444.388,535.473 
	1437.108,521.63 1425.905,509.076 1417.343,497.874 1408.781,487.313 1400.15,476.11 1391.649,465.549 1384.376,458.337 
	1372.464,446.425 1363.902,435.222 1351.41,426.02 1341.489,417.457 1331.645,409.536 1324.365,402.256 1314.452,394.335 
	1305.89,390.412 1294.68,377.852 "/>
<polyline fill="none" stroke="#000000" stroke-width="0.1" stroke-linecap="round" stroke-miterlimit="10" points="
	1775.336,2085.553 1775.336,2085.553 1774.055,2088.192 1779.266,2076.99 1809.662,2011.698 1843.91,1900.313 1853.83,1798.063 
	1859.11,1697.874 1863.682,1599.616 1862.393,1505.996 1863.682,1413.667 1851.832,1329.319 1829.426,1250.185 1806.311,1173.69 
	1776.693,1105.116 1749.65,1037.191 1714.684,979.82 1680.365,905.325 1677.084,904.035 1665.883,898.755 1656.03,890.833 
	1645.469,868.428 1634.908,839.391 1613.144,798.504 1587.457,748.405 1568.333,701.596 1554.491,664.707 1539.999,637.013 
	1523.516,611.968 1513.603,590.204 1499.05,576.361 1488.557,561.808 1481.277,554.597 1472.715,544.043 1458.231,530.2 
	1450.951,516.356 1439.749,504.445 1431.186,493.235 1421.914,482.742 1413.352,471.479 1404.79,460.978 1397.579,453.705 
	1386.368,441.854 1377.096,430.651 1364.611,421.379 1354.691,413.458 1344.778,404.896 1337.567,398.333 1327.646,390.412 
	1319.084,386.421 1307.241,373.929 "/>
<polyline fill="none" stroke="#000000" stroke-width="0.1" stroke-linecap="round" stroke-miterlimit="10" points="
	1798.459,2082.271 1798.459,2082.271 1797.101,2085.553 1802.381,2074.35 1832.707,2008.417 1866.322,1896.964 1875.594,1794.774 
	1880.875,1693.884 1884.156,1595.693 1882.806,1502.074 1883.447,1409.737 1870.955,1324.681 1848.551,1245.545 1825.436,1169.76 
	1795.108,1100.484 1767.423,1033.262 1731.815,975.249 1697.56,900.753 1694.277,899.396 1683.076,894.824 1673.155,886.201 
	1662.594,864.437 1651.391,835.462 1629.627,793.933 1603.94,744.483 1584.176,697.673 1570.264,660.708 1555.131,633.022 
	1539.297,608.625 1528.735,586.213 1514.244,573.019 1503.69,557.886 1496.479,551.254 1487.848,540.051 1473.363,526.911 
	1466.083,513.068 1454.24,500.515 1445.67,489.953 1437.108,478.75 1427.904,468.189 1419.335,456.986 1412.062,450.424 
	1400.15,437.863 1391.649,427.301 1379.096,418.098 1368.534,409.536 1358.682,401.615 1351.41,395.044 1341.489,387.123 
	1332.927,383.132 1321.083,370.64 "/>
<polyline fill="none" stroke="#000000" stroke-width="0.1" stroke-linecap="round" stroke-miterlimit="10" points="
	1816.873,2080.921 1816.873,2080.921 1815.582,2083.561 1820.863,2072.358 1850.479,2007.066 1884.798,1895.675 1893.359,1792.783 
	1898.641,1691.953 1902.631,1594.335 1900.641,1500.716 1901.93,1407.745 1888.729,1323.39 1866.963,1244.263 1843.27,1167.768 
	1812.943,1099.194 1785.258,1031.262 1750.291,973.898 1715.332,899.396 1712.691,898.113 1700.841,892.833 1690.928,884.912 
	1680.365,863.147 1669.873,834.111 1647.399,792.575 1621.713,743.125 1601.94,696.315 1588.098,658.777 1573.614,631.74 
	1557.131,606.687 1546.569,584.923 1532.017,571.08 1522.165,556.535 1514.892,549.324 1505.682,538.762 1491.838,524.919 
	1483.917,511.076 1472.715,499.225 1463.512,487.961 1454.881,477.461 1446.318,466.259 1437.108,455.697 1430.545,449.065 
	1418.633,436.573 1410.063,426.02 1396.869,416.099 1387.017,408.186 1377.096,400.325 1369.885,393.693 1359.331,385.131 
	1350.7,381.85 1339.498,369.289 "/>
<polyline fill="none" stroke="#000000" stroke-width="0.1" stroke-linecap="round" stroke-miterlimit="10" points="
	1830.715,2077.632 1830.715,2077.632 1829.426,2080.921 1834.706,2069.068 1865.033,2004.426 1899.288,1893.034 1909.202,1790.853 
	1914.482,1689.953 1918.412,1592.344 1917.123,1498.724 1919.115,1406.456 1906.562,1321.398 1884.798,1242.263 1861.683,1166.417 
	1832.066,1097.195 1804.381,1029.98 1769.415,971.96 1735.097,897.404 1732.525,896.114 1721.315,890.833 1710.762,882.912 
	1700.841,861.147 1690.287,832.181 1667.873,790.644 1642.828,741.194 1623.064,694.384 1609.862,656.786 1594.668,629.099 
	1578.895,604.695 1568.333,582.29 1553.78,569.088 1543.929,553.894 1536.656,547.324 1528.086,536.122 1513.603,522.92 
	1506.33,509.076 1494.479,496.584 1485.917,486.023 1477.354,474.82 1468.785,463.618 1460.161,453.057 1452.95,446.425 
	1441.099,433.94 1432.476,422.73 1419.983,413.458 1409.422,405.545 1399.509,397.685 1392.298,390.412 1382.377,382.491 
	1373.815,378.562 1362.612,366.649 "/>
<polyline fill="none" stroke="#000000" stroke-width="0.1" stroke-linecap="round" stroke-miterlimit="10" points="
	1843.27,2073.709 1843.27,2073.709 1841.918,2076.35 1847.198,2065.147 1878.166,2000.495 1913.133,1889.753 1923.693,1787.502 
	1929.615,1686.672 1934.248,1589.063 1933.606,1495.435 1936.248,1403.814 1924.335,1318.759 1903.28,1239.623 1880.875,1163.776 
	1851.189,1094.555 1824.794,1026.691 1789.828,968.618 1756.22,894.115 1752.932,892.833 1741.729,887.552 1731.815,879.63 
	1721.964,857.226 1711.402,828.182 1689.639,786.652 1664.592,737.203 1645.469,690.394 1632.267,652.794 1617.783,625.108 
	1601.94,600.704 1591.387,578.292 1577.536,565.159 1566.982,549.965 1559.771,542.685 1551.201,532.191 1537.298,518.288 
	1530.086,504.445 1518.235,491.952 1509.611,481.391 1501.049,470.188 1492.48,459.626 1483.917,448.424 1476.645,441.854 
	1465.442,429.301 1456.88,418.098 1444.388,408.887 1434.468,400.974 1424.616,392.404 1417.343,385.772 1407.43,377.21 
	1398.86,373.28 1387.017,361.368 "/>
<polyline fill="none" stroke="#000000" stroke-width="0.1" stroke-linecap="round" stroke-miterlimit="10" points="
	1854.471,2071.71 1854.471,2071.71 1853.182,2074.35 1858.401,2063.147 1889.438,1998.504 1925.045,1887.753 1936.248,1786.213 
	1942.811,1685.321 1948.09,1587.771 1948.09,1494.153 1950.73,1401.815 1939.529,1317.407 1919.115,1238.334 1896.649,1161.847 
	1867.674,1092.624 1841.277,1024.699 1807.021,966.687 1774.055,891.482 1771.414,890.192 1759.501,884.912 1749.65,876.99 
	1739.737,854.585 1729.816,825.541 1708.121,784.012 1683.717,733.921 1664.592,687.112 1651.391,649.505 1636.907,621.819 
	1621.064,596.774 1611.152,575.01 1596.66,561.167 1586.748,546.034 1580.177,539.403 1571.615,528.201 1557.131,514.358 
	1549.851,500.515 1538.648,487.961 1530.086,477.461 1521.523,466.259 1512.961,454.995 1504.331,444.494 1497.119,437.222 
	1485.917,424.668 1477.354,414.168 1464.793,404.255 1454.881,396.333 1445.029,387.772 1437.756,381.202 1427.904,372.579 
	1419.335,368.648 1408.132,356.095 "/>
<polyline fill="none" stroke="#000000" stroke-width="0.1" stroke-linecap="round" stroke-miterlimit="10" points="
	1861.683,2067.077 1861.683,2067.077 1860.394,2069.718 1866.322,2058.515 1897.359,1994.574 1933.606,1883.83 1944.809,1782.29 
	1951.38,1682.031 1957.301,1584.49 1957.301,1491.512 1960.582,1399.824 1949.38,1314.767 1928.967,1235.692 1907.21,1159.848 
	1878.166,1090.632 1852.479,1022.699 1818.224,964.688 1785.258,890.192 1782.616,888.841 1771.414,883.561 1761.493,874.998 
	1751.58,853.234 1741.088,824.259 1719.964,782.73 1695.56,732.57 1677.084,685.761 1663.883,648.224 1649.399,620.53 
	1634.267,596.133 1623.705,573.72 1609.862,559.877 1599.949,544.684 1592.738,538.113 1584.176,526.911 1570.264,513.068 
	1563.053,499.225 1551.85,487.313 1543.288,476.11 1534.718,464.908 1526.804,453.705 1518.235,443.144 1510.962,435.871 
	1499.76,424.02 1491.197,412.818 1478.636,402.904 1468.785,395.044 1458.872,386.421 1451.599,379.851 1441.748,371.929 
	1433.826,367.358 1421.914,355.446 "/>
<polyline fill="none" stroke="#000000" stroke-width="0.1" stroke-linecap="round" stroke-miterlimit="10" points="
	1869.664,2064.438 1869.664,2064.438 1868.314,2067.077 1874.244,2055.875 1905.211,1991.935 1941.527,1881.831 1952.73,1780.29 
	1959.942,1680.04 1965.862,1582.491 1965.862,1489.513 1969.213,1397.894 1958.652,1312.836 1938.177,1234.343 1916.414,1157.855 
	1888.087,1088.633 1861.683,1020.708 1828.075,962.688 1795.108,888.193 1792.469,886.903 1781.266,881.63 1771.414,873.06 
	1761.493,851.304 1751.58,822.26 1729.816,780.73 1705.48,730.64 1686.998,683.831 1674.445,646.224 1659.953,619.179 
	1644.118,594.133 1634.267,571.729 1620.424,557.886 1610.503,542.685 1603.23,536.122 1594.668,524.919 1580.826,511.717 
	1573.614,497.874 1562.412,485.321 1553.78,474.118 1545.928,462.908 1537.298,452.354 1528.735,441.151 1521.523,434.582 
	1510.321,422.028 1501.751,410.818 1489.198,401.615 1479.286,393.052 1469.434,385.131 1462.802,377.852 1452.95,369.938 
	1444.388,366.008 1433.117,353.454 "/>
<polyline fill="none" stroke="#000000" stroke-width="0.1" stroke-linecap="round" stroke-miterlimit="10" points="
	1873.595,2061.796 1873.595,2061.796 1872.244,2065.147 1877.525,2053.875 1909.202,1989.293 1945.449,1879.19 1956.661,1777.65 
	1963.934,1677.399 1969.854,1579.852 1970.503,1486.873 1973.784,1395.253 1962.581,1310.196 1942.811,1231.062 1921.054,1155.215 
	1892.078,1085.992 1866.322,1018.068 1832.707,960.048 1799.74,885.553 1797.101,884.271 1785.897,878.341 1775.984,870.42 
	1766.133,847.954 1756.22,818.979 1734.457,777.449 1710.762,727.999 1691.638,680.542 1679.076,643.583 1664.592,615.898 
	1649.399,590.852 1638.898,568.44 1624.995,555.245 1615.143,540.051 1607.87,532.841 1599.949,521.63 1585.458,508.436 
	1578.895,494.593 1566.982,482.032 1559.062,470.829 1550.499,459.626 1541.929,449.065 1533.367,437.863 1526.804,430.651 
	1514.892,418.739 1507.032,407.536 1493.838,397.685 1484.566,389.764 1474.714,381.202 1467.434,374.57 1457.582,366.649 
	1448.959,362.077 1437.756,350.166 "/>
<polyline fill="none" stroke="#000000" stroke-width="0.1" stroke-linecap="round" stroke-miterlimit="10" points="
	1879.518,2059.866 1879.518,2059.866 1878.166,2062.506 1883.447,2051.235 1915.125,1986.653 1951.38,1876.55 1962.581,1774.369 
	1969.854,1674.118 1975.776,1576.569 1975.776,1483.592 1979.065,1391.263 1967.862,1306.907 1947.449,1227.779 1925.685,1151.284 
	1897.359,1082.07 1871.603,1014.138 1837.348,956.125 1804.381,881.63 1801.74,880.272 1790.537,874.351 1780.617,866.429 
	1770.765,844.023 1760.211,814.987 1739.088,773.458 1714.684,724.008 1696.208,676.551 1683.076,638.951 1669.164,611.258 
	1653.39,586.861 1643.47,564.448 1628.985,550.605 1619.072,535.473 1612.503,528.842 1603.94,517.639 1589.449,503.796 
	1582.817,489.953 1571.615,477.461 1563.053,466.907 1554.491,455.697 1545.928,444.494 1537.298,433.292 1530.086,426.661 
	1518.884,414.168 1510.321,402.904 1497.761,393.693 1487.848,385.131 1477.996,377.21 1471.364,369.938 1461.512,362.077 
	1452.95,358.086 1441.748,345.594 "/>
<polyline fill="none" stroke="#000000" stroke-width="0.1" stroke-linecap="round" stroke-miterlimit="10" points="
	1887.438,2054.586 1887.438,2054.586 1886.148,2057.867 1891.368,2046.664 1922.403,1982.021 1958.011,1871.271 1969.213,1769.729 
	1975.776,1669.54 1981.057,1571.93 1981.057,1478.951 1983.697,1387.332 1972.495,1302.274 1952.081,1223.788 1929.615,1147.294 
	1900.641,1078.072 1874.884,1010.856 1840.629,952.836 1807.021,878.341 1804.381,876.99 1793.178,871.709 1783.258,863.147 
	1773.346,841.383 1762.782,812.408 1741.729,770.818 1717.324,721.368 1698.2,673.91 1685.006,637.013 1670.515,609.327 
	1655.382,584.221 1644.828,562.518 1630.916,548.675 1621.064,533.481 1613.792,526.911 1605.229,515.708 1591.387,501.804 
	1584.176,487.961 1572.966,476.11 1564.342,464.908 1555.78,453.705 1547.21,443.144 1538.648,431.941 1531.375,425.37 
	1520.173,412.818 1511.604,401.615 1499.05,392.404 1489.198,383.842 1479.286,375.921 1472.074,369.289 1462.153,360.727 
	1453.591,356.797 1442.389,344.244 "/>
<polyline fill="none" stroke="#000000" stroke-width="0.1" stroke-linecap="round" stroke-miterlimit="10" points="
	1894.008,2053.235 1894.008,2053.235 1892.719,2055.875 1897.999,2044.664 1928.967,1980.09 1964.573,1869.919 1975.136,1767.737 
	1981.057,1667.549 1986.338,1569.938 1985.696,1476.96 1987.628,1385.333 1976.426,1300.276 1955.371,1221.85 1932.896,1145.363 
	1903.922,1076.789 1877.525,1008.857 1842.628,951.486 1809.662,876.99 1806.311,875.701 1795.108,870.42 1785.258,861.858 
	1775.336,840.094 1764.782,811.057 1743.019,769.528 1718.614,720.078 1699.56,673.269 1686.357,635.662 1671.864,607.977 
	1656.03,583.572 1646.109,561.808 1631.626,547.965 1621.713,532.841 1614.434,526.201 1605.932,514.999 1592.028,501.156 
	1584.816,487.313 1572.966,475.469 1564.342,464.267 1555.78,453.705 1547.21,442.502 1538.648,431.3 1532.017,424.668 
	1520.173,412.176 1511.604,401.615 1499.05,391.702 1489.198,383.842 1479.286,375.921 1472.074,368.648 1462.153,360.727 
	1454.24,356.797 1442.389,344.244 "/>
<polyline fill="none" stroke="#000000" stroke-width="0.1" stroke-linecap="round" stroke-miterlimit="10" points="
	1901.28,2049.945 1901.28,2049.945 1899.931,2052.586 1905.211,2041.383 1936.888,1977.45 1973.784,1867.987 1986.338,1766.448 
	1994.259,1666.907 2000.83,1569.289 2002.18,1476.312 2005.461,1385.333 1995.549,1300.276 1975.776,1221.148 1955.371,1145.363 
	1926.975,1076.141 1901.93,1008.216 1868.314,950.204 1835.996,874.998 1833.356,873.709 1822.154,868.428 1812.943,859.866 
	1803.029,838.102 1793.178,809.058 1772.055,767.529 1748.299,717.438 1730.526,670.628 1717.324,633.022 1703.48,605.336 
	1688.349,580.291 1678.437,557.886 1664.592,544.043 1654.68,528.842 1648.109,522.278 1639.547,511.076 1625.704,497.233 
	1618.424,483.391 1607.222,470.829 1599.301,459.626 1590.738,449.065 1582.176,437.863 1574.255,426.661 1566.982,420.09 
	1555.78,407.536 1547.859,396.333 1535.366,386.421 1525.446,378.562 1515.533,369.938 1508.963,363.368 1499.05,354.805 
	1490.549,350.875 1479.286,338.322 "/>
<polyline fill="none" stroke="#000000" stroke-width="0.1" stroke-linecap="round" stroke-miterlimit="10" points="
	1907.21,2047.306 1907.21,2047.306 1905.211,2049.945 1911.133,2038.743 1943.458,1975.45 1982.347,1865.988 1996.259,1765.097 
	2005.461,1665.549 2013.382,1568.648 2016.023,1475.67 2020.594,1384.051 2012.032,1298.993 1993.55,1219.858 1973.784,1143.363 
	1946.808,1073.5 1922.403,1005.576 1889.438,946.854 1858.401,871.709 1855.761,870.42 1844.559,864.437 1835.348,855.875 
	1825.436,834.111 1816.225,804.487 1795.75,762.958 1772.703,712.798 1755.57,665.348 1743.019,627.741 1729.816,600.056 
	1714.684,574.369 1705.48,552.605 1691.638,538.113 1681.718,522.92 1675.154,515.708 1666.592,505.147 1653.39,490.602 
	1646.109,476.751 1635.557,464.267 1626.986,453.057 1619.072,441.854 1610.503,430.651 1602.59,419.388 1596.02,412.176 
	1584.816,399.615 1576.254,388.413 1564.342,378.562 1554.491,370.64 1545.218,362.077 1538.007,354.805 1528.735,346.884 
	1520.173,342.244 1508.963,329.759 "/>
<polyline fill="none" stroke="#000000" stroke-width="0.1" stroke-linecap="round" stroke-miterlimit="10" points="
	1912.483,2044.664 1912.483,2044.664 1911.133,2047.306 1917.123,2036.752 1950.73,1973.459 1990.978,1865.348 2006.109,1764.448 
	2016.663,1665.549 2025.874,1568.648 2029.866,1476.312 2036.437,1384.691 2029.225,1300.276 2011.383,1221.148 1992.908,1144.653 
	1967.215,1074.79 1944.1,1006.216 1912.483,946.854 1882.156,871.709 1879.518,870.42 1868.963,864.437 1859.11,855.875 
	1849.84,833.462 1841.277,804.487 1821.505,762.248 1799.1,711.517 1782.616,664.058 1771.414,626.459 1758.212,598.773 
	1743.728,573.019 1734.457,550.605 1720.613,536.763 1711.402,521.63 1704.833,514.358 1696.85,503.155 1683.076,488.664 
	1677.084,474.82 1665.883,462.267 1657.961,450.424 1650.108,439.213 1642.188,428.011 1634.267,416.809 1626.986,409.536 
	1616.433,396.975 1608.512,385.772 1596.66,375.921 1586.748,367.358 1577.536,358.728 1570.974,351.516 1561.053,342.954 
	1553.14,338.963 1542.578,325.761 "/>
<polyline fill="none" stroke="#000000" stroke-width="0.1" stroke-linecap="round" stroke-miterlimit="10" points="
	1918.412,2042.032 1918.412,2042.032 1917.123,2044.664 1923.045,2034.11 1957.301,1972.169 1999.54,1864.706 2016.023,1764.448 
	2028.516,1665.549 2039.718,1569.289 2044.35,1476.96 2052.92,1385.981 2046.35,1300.924 2030.508,1221.85 2012.742,1145.363 
	1988.338,1074.79 1966.573,1006.216 1935.599,946.854 1907.21,871.068 1904.57,869.718 1893.359,863.788 1884.156,855.226 
	1875.594,832.181 1866.963,803.136 1847.908,760.966 1826.785,710.158 1810.943,662.708 1799.74,624.46 1787.248,596.774 
	1773.346,571.08 1764.134,548.675 1750.939,534.122 1742.369,518.99 1735.807,511.717 1727.885,499.874 1714.684,486.023 
	1708.121,471.479 1697.56,458.986 1689.639,447.134 1681.718,435.871 1674.445,424.668 1666.592,413.458 1659.953,406.247 
	1649.399,393.052 1641.478,381.85 1629.627,371.929 1620.424,362.727 1610.503,354.156 1603.94,346.884 1594.668,338.322 
	1586.748,333.682 1576.254,321.19 "/>
<polyline fill="none" stroke="#000000" stroke-width="0.1" stroke-linecap="round" stroke-miterlimit="10" points="
	1924.335,2039.392 1924.335,2039.392 1923.045,2042.032 1928.967,2031.471 1964.573,1970.169 2008.102,1863.997 2025.874,1764.448 
	2040.428,1666.196 2052.92,1570.64 2059.482,1478.951 2068.754,1387.973 2064.122,1304.267 2049.631,1224.49 2033.795,1148.003 
	2010.032,1077.431 1989.627,1008.857 1959.942,949.494 1932.896,873.06 1930.325,871.709 1919.115,865.788 1910.491,856.577 
	1901.93,834.111 1894.008,805.135 1875.594,762.248 1855.12,711.517 1840.629,664.058 1830.066,626.459 1818.224,598.125 
	1804.381,572.369 1795.75,549.965 1783.258,535.473 1774.695,519.638 1768.063,512.358 1760.211,501.156 1747.65,486.672 
	1741.729,472.18 1731.166,458.986 1723.254,447.784 1716.042,436.573 1708.121,424.668 1700.841,413.458 1694.277,406.247 
	1684.357,393.052 1676.437,381.85 1664.592,371.289 1655.382,362.727 1646.759,353.454 1640.188,346.243 1630.916,337.673 
	1623.064,333.041 1612.503,319.839 "/>
<polyline fill="none" stroke="#000000" stroke-width="0.1" stroke-linecap="round" stroke-miterlimit="10" points="
	1928.326,2037.392 1928.326,2037.392 1926.975,2040.033 1932.896,2029.54 1969.213,1968.819 2014.672,1863.997 2034.505,1765.097 
	2050.278,1667.549 2064.763,1572.578 2073.394,1481.592 2084.596,1391.902 2081.246,1307.556 2068.113,1228.421 2053.561,1151.926 
	2031.797,1081.361 2012.032,1012.787 1983.697,952.836 1958.011,876.349 1955.371,874.998 1945.449,868.428 1936.248,859.866 
	1928.326,837.453 1921.054,807.775 1903.922,765.537 1884.156,714.156 1870.313,666.637 1861.043,628.451 1849.19,600.056 
	1835.996,574.369 1828.075,551.957 1815.582,537.411 1807.662,521.63 1801.031,514.358 1793.819,502.506 1781.266,487.961 
	1775.336,473.47 1765.492,460.978 1758.212,449.065 1750.939,437.863 1743.728,426.02 1736.447,414.168 1729.816,406.895 
	1719.964,393.693 1712.691,382.491 1700.841,371.929 1692.278,362.727 1683.076,354.156 1677.084,346.884 1667.873,337.673 
	1659.953,333.041 1650.108,319.839 "/>
<polyline fill="none" stroke="#000000" stroke-width="0.1" stroke-linecap="round" stroke-miterlimit="10" points="
	1934.896,2033.462 1934.896,2033.462 1933.606,2036.103 1940.177,2026.189 1977.065,1966.888 2023.944,1863.349 2045.708,1765.808 
	2062.833,1669.54 2078.675,1575.218 2088.527,1484.881 2101.079,1395.894 2099.729,1312.127 2087.878,1233.702 2074.684,1157.206 
	2054.271,1087.344 2036.437,1018.068 2009.391,958.766 1985.049,882.271 1982.347,880.92 1972.495,874.351 1963.292,865.146 
	1956.012,842.734 1949.38,813.698 1932.896,770.818 1914.482,720.078 1901.28,672.62 1892.719,635.021 1881.516,606.687 
	1868.963,580.932 1861.683,558.526 1849.84,543.395 1841.277,527.56 1835.348,520.279 1828.075,508.436 1816.225,493.944 
	1810.943,479.392 1801.031,466.259 1793.819,454.995 1786.547,443.144 1779.975,431.941 1772.703,420.09 1766.773,412.818 
	1756.861,399.615 1749.65,387.772 1738.447,377.21 1729.816,368 1721.315,359.438 1715.332,351.516 1706.122,342.954 
	1698.85,337.673 1688.996,324.479 "/>
<polyline fill="none" stroke="#000000" stroke-width="0.1" stroke-linecap="round" stroke-miterlimit="10" points="
	1940.818,2030.821 1940.818,2030.821 1939.529,2033.462 1946.099,2023.549 1983.697,1965.538 2031.797,1864.706 2054.912,1768.447 
	2074.035,1672.829 2091.167,1580.491 2103.011,1490.803 2116.922,1403.167 2116.922,1320.75 2107.002,1242.904 2095.799,1167.126 
	2076.675,1097.195 2060.191,1029.271 2034.505,969.32 2012.032,893.474 2009.391,892.184 1999.54,885.553 1990.978,876.349 
	1983.697,853.937 1977.775,824.9 1962.581,782.73 1945.449,731.922 1932.896,684.471 1925.045,646.865 1915.125,618.538 
	1903.28,592.844 1896,570.378 1884.156,555.886 1876.876,540.051 1870.955,532.841 1863.682,520.928 1851.832,505.795 
	1847.198,491.952 1837.348,478.75 1830.715,466.907 1824.145,455.697 1817.514,443.785 1810.302,432.582 1804.381,424.668 
	1795.108,411.527 1788.539,400.325 1777.336,389.062 1769.415,380.492 1760.852,371.289 1754.931,364.008 1746.3,354.805 
	1739.088,349.525 1729.176,336.322 "/>
<polyline fill="none" stroke="#000000" stroke-width="0.1" stroke-linecap="round" stroke-miterlimit="10" points="
	1946.808,2026.899 1946.808,2026.899 1944.809,2028.831 1952.081,2018.979 1990.268,1962.896 2039.718,1863.349 2064.763,1769.089 
	2085.237,1675.469 2104.36,1583.78 2117.563,1496.084 2133.405,1409.737 2134.688,1327.962 2126.126,1250.185 2116.213,1175.689 
	2099.08,1105.765 2083.956,1038.542 2059.482,978.53 2039.077,903.387 2036.437,902.036 2026.517,895.473 2018.663,886.201 
	2012.032,863.788 2006.751,834.82 1992.259,792.575 1976.426,742.483 1965.223,695.033 1958.011,658.075 1948.739,629.741 
	1937.537,604.047 1930.967,581.642 1919.764,567.089 1912.483,551.254 1906.562,544.043 1899.931,532.191 1888.729,516.998 
	1884.156,503.155 1874.884,489.953 1868.314,478.109 1861.683,466.907 1855.761,454.995 1849.19,443.785 1843.27,435.871 
	1834.706,422.73 1828.075,411.527 1817.514,400.325 1808.951,391.054 1801.031,381.85 1795.108,374.57 1787.248,365.367 
	1779.975,360.727 1770.765,346.884 "/>
<polyline fill="none" stroke="#000000" stroke-width="0.1" stroke-linecap="round" stroke-miterlimit="10" points="
	1951.38,2022.908 1951.38,2022.908 1950.089,2025.549 1956.661,2016.339 1995.549,1960.966 2046.99,1863.997 2073.394,1771.02 
	2095.799,1679.392 2116.213,1589.063 2131.406,1502.715 2148.53,1417.659 2151.819,1337.233 2145.249,1260.746 2137.328,1186.243 
	2121.492,1116.968 2108.291,1049.745 2085.237,990.382 2066.763,915.879 2064.122,914.596 2054.912,907.316 2046.99,898.113 
	2041.068,876.349 2036.437,847.305 2022.593,805.776 2008.102,755.037 1998.188,708.876 1992.259,671.918 1983.057,643.583 
	1972.495,618.538 1966.573,596.133 1956.012,580.932 1948.739,565.159 1943.458,557.886 1937.537,546.034 1926.326,531.482 
	1921.694,516.998 1913.133,503.796 1907.21,492.594 1901.28,480.75 1894.649,469.54 1888.729,457.636 1883.447,450.424 
	1874.884,436.573 1868.314,425.37 1858.401,414.168 1850.479,404.896 1842.628,395.693 1837.348,388.413 1829.426,379.209 
	1822.154,373.929 1813.584,360.727 "/>
<polyline fill="none" stroke="#000000" stroke-width="0.1" stroke-linecap="round" stroke-miterlimit="10" points="
	1956.012,2019.62 1956.012,2019.62 1954.661,2022.26 1961.292,2013.058 2001.531,1959.615 2054.271,1864.706 2081.956,1773.659 
	2106.36,1683.391 2128.765,1594.983 2145.249,1509.927 2164.372,1426.22 2169.653,1347.085 2165.015,1271.3 2158.383,1197.453 
	2144.607,1128.88 2132.695,1062.237 2111.642,1003.576 2094.448,929.081 2092.448,927.081 2083.246,920.519 2075.325,911.308 
	2070.044,888.841 2066.114,860.507 2054.271,818.979 2040.428,769.528 2031.797,722.719 2026.517,686.463 2018.663,658.777 
	2008.742,633.022 2003.47,611.258 1992.908,596.133 1986.338,580.291 1981.057,573.019 1975.136,561.167 1964.573,546.034 
	1960.582,532.191 1952.73,518.99 1946.808,507.085 1940.818,495.875 1934.896,484.031 1929.615,472.829 1924.335,464.908 
	1915.772,451.706 1909.844,440.503 1899.931,429.301 1892.719,420.09 1885.447,410.818 1880.165,402.904 1872.244,393.693 
	1865.674,388.413 1857.111,375.211 "/>
<polyline fill="none" stroke="#000000" stroke-width="0.1" stroke-linecap="round" stroke-miterlimit="10" points="
	1959.942,2017.628 1959.942,2017.628 1958.652,2019.62 1965.223,2010.416 2006.109,1958.967 2060.191,1866.638 2090.519,1777.65 
	2116.213,1688.603 2140.617,1602.256 2159.092,1518.558 2179.506,1436.782 2186.777,1358.295 2183.496,1283.151 2178.856,1210.587 
	2167.014,1142.722 2157.1,1076.789 2137.328,1017.419 2122.845,944.274 2120.203,942.283 2110.933,935.002 2103.721,925.799 
	2099.08,904.035 2095.799,875.701 2084.596,834.82 2072.684,785.363 2065.473,739.202 2060.833,702.946 2053.561,675.261 
	2044.35,649.505 2039.718,627.741 2029.866,612.616 2023.944,597.415 2018.663,589.501 2013.382,578.292 2003.47,563.167 
	1999.54,549.324 1991.619,536.122 1986.338,524.27 1981.057,513.068 1975.776,501.156 1969.854,489.312 1965.223,482.032 
	1957.301,468.838 1952.081,456.986 1942.168,445.784 1934.896,436.573 1927.616,427.301 1923.045,420.09 1915.772,410.818 
	1909.202,405.545 1901.28,391.702 "/>
<polyline fill="none" stroke="#000000" stroke-width="0.1" stroke-linecap="round" stroke-miterlimit="10" points="
	1965.223,2013.697 1965.223,2013.697 1963.292,2016.339 1970.503,2007.776 2011.383,1957.616 2066.763,1868.63 2098.44,1782.29 
	2125.416,1695.874 2151.819,1611.467 2171.584,1530.4 2194.058,1450.625 2202.62,1374.13 2201.27,1300.276 2198.629,1229.062 
	2188.066,1161.847 2180.146,1097.195 2162.373,1039.183 2149.889,966.687 2147.18,964.688 2138.618,957.415 2132.047,948.205 
	2128.125,927.081 2125.416,899.396 2115.563,858.516 2105.01,809.767 2098.44,764.248 2095.159,728.641 2088.527,701.596 
	2079.956,676.551 2075.965,654.786 2066.763,640.302 2061.481,624.46 2056.201,617.187 2051.631,605.336 2041.717,590.852 
	2038.429,577.009 2031.797,563.808 2026.517,551.957 2021.304,540.753 2016.023,529.551 2011.383,517.639 2006.751,510.427 
	1999.54,497.233 1994.259,485.321 1985.049,474.82 1978.417,465.549 1971.145,455.697 1966.573,448.424 1959.942,439.213 
	1953.371,433.94 1946.099,420.738 "/>
<polyline fill="none" stroke="#000000" stroke-width="0.1" stroke-linecap="round" stroke-miterlimit="10" points="
	1967.862,2010.416 1967.862,2010.416 1965.862,2013.058 1973.144,2004.426 2014.024,1956.327 2070.044,1869.278 2101.722,1784.221 
	2130.056,1699.874 2157.1,1617.457 2177.574,1536.971 2200.621,1459.187 2210.542,1384.051 2210.542,1311.478 2208.542,1240.974 
	2199.339,1175.041 2192.059,1111.039 2175.574,1053.675 2164.372,982.461 2161.733,980.53 2153.812,973.25 2147.18,964.046 
	2143.249,942.923 2141.258,915.238 2132.047,874.998 2122.135,826.899 2116.213,782.73 2113.572,747.124 2107.65,720.719 
	2099.729,695.673 2095.799,674.559 2086.527,659.426 2081.956,644.225 2077.317,637.013 2072.044,625.108 2063.474,610.617 
	2060.191,596.774 2053.561,583.572 2048.279,572.369 2043.709,561.167 2038.429,549.965 2033.795,538.762 2029.225,530.841 
	2022.593,517.639 2017.313,506.437 2008.742,495.233 2002.18,486.023 1995.549,476.751 1990.978,469.54 1984.347,460.268 
	1978.417,454.995 1971.145,441.854 "/>
<polyline fill="none" stroke="#000000" stroke-width="0.1" stroke-linecap="round" stroke-miterlimit="10" points="
	1974.494,2007.066 1974.494,2007.066 1972.495,2009.065 1979.775,2000.495 2020.594,1952.335 2075.965,1865.988 2107.65,1781.581 
	2135.977,1697.233 2162.373,1615.457 2182.855,1535.682 2205.901,1457.837 2215.112,1382.691 2215.112,1310.837 2213.113,1240.272 
	2203.91,1175.041 2196.629,1111.039 2180.146,1054.377 2168.303,983.17 2166.372,981.17 2157.741,973.898 2151.17,964.688 
	2147.18,943.564 2145.249,916.527 2135.977,876.349 2126.126,828.891 2120.845,784.012 2117.563,749.764 2111.642,722.719 
	2103.721,697.673 2099.729,676.551 2091.167,662.066 2085.886,646.865 2081.246,639.653 2076.675,627.741 2067.472,613.258 
	2064.122,600.056 2057.552,586.861 2052.92,575.65 2047.64,564.448 2043,552.605 2038.429,541.402 2033.795,534.122 
	2026.517,520.928 2021.945,509.718 2013.382,498.515 2006.751,489.312 2000.181,480.75 1995.549,472.829 1988.978,463.618 
	1982.347,458.337 1975.776,445.143 "/>
<polyline fill="none" stroke="#000000" stroke-width="0.1" stroke-linecap="round" stroke-miterlimit="10" points="
	1974.494,2007.066 1974.494,2007.066 1972.495,2009.065 1979.775,2000.495 2020.594,1952.335 2075.965,1865.988 2107.65,1781.581 
	2135.977,1697.233 2162.373,1614.816 2182.855,1535.04 2205.261,1457.195 2215.112,1382.052 2214.463,1310.196 2212.471,1240.272 
	2203.261,1174.338 2195.988,1110.397 2179.506,1053.675 2167.653,982.461 2165.662,980.53 2157.1,973.25 2150.53,964.046 
	2147.18,942.923 2144.607,915.879 2135.337,875.701 2125.416,827.541 2120.203,783.371 2116.922,748.405 2110.933,722.07 
	2103.011,697.024 2099.08,675.909 2089.878,661.417 2085.237,646.224 2080.605,638.303 2075.325,627.101 2066.763,612.616 
	2063.474,598.773 2056.201,585.572 2051.631,574.369 2046.99,563.167 2041.717,551.957 2037.077,540.753 2032.506,533.481 
	2025.874,520.279 2020.594,509.076 2012.032,497.874 2005.461,488.664 1998.831,479.392 1994.259,472.18 1987.628,462.908 
	1981.705,457.636 1974.494,444.494 "/>
</svg>
