<?xml version="1.0" encoding="utf-8"?>
<!-- Generator: Adobe Illustrator 16.0.0, SVG Export Plug-In . SVG Version: 6.00 Build 0)  -->
<!DOCTYPE svg PUBLIC "-//W3C//DTD SVG 1.1//EN" "http://www.w3.org/Graphics/SVG/1.1/DTD/svg11.dtd">
<svg version="1.1" id="Layer_1" xmlns="http://www.w3.org/2000/svg" xmlns:xlink="http://www.w3.org/1999/xlink" x="0px" y="0px"
	 width="3370.39px" height="2383.939px" viewBox="0 0 3370.39 2383.939" enable-background="new 0 0 3370.39 2383.939"
	 xml:space="preserve">
<polyline fill="none" stroke="#010101" stroke-width="0.5" stroke-linecap="round" stroke-miterlimit="10" points="
	1227.533,1997.312 1227.533,1997.312 1238.327,1986.14 1244,1991.638 1260.466,1985.793 1276.93,1980.119 1320.863,1968.617 
	1359.639,1973.564 1409.244,1978.528 1464.487,1977.819 1508.419,1966.127 1574.49,1965.245 1635.232,1959.054 1678.957,1936.378 
	1739.562,1930.186 1816.425,1907.147 1855.203,1912.112 1915.945,1916.902 1954.377,1910.866 1998.653,1921.33 2020.792,1932.123 
	2031.965,1942.934 2054.104,1942.76 2059.742,1948.243 2065.244,1953.553 2059.742,1959.227 2059.949,1970.208 2060.124,1981.192 
	2049.297,2003.504 2049.676,2025.469 2044.177,2031.125 2033.383,2053.264 2028.055,2058.938 2033.383,2053.264 2038.85,2047.78 
	2044.349,2042.108 2049.852,2036.452 2055.143,2030.952 2060.642,2025.296 2071.643,2014.123 2082.434,2002.968 2087.937,1997.485 
	2098.902,1997.312 "/>
<polyline fill="none" stroke="#010101" stroke-width="0.5" stroke-linecap="round" stroke-miterlimit="10" points="
	2098.902,318.295 2098.902,318.295 2120.348,339.207 2109.867,350 2121.041,381.702 2132.006,413.596 2154.352,498.242 
	2144.597,572.804 2135.224,668.452 2136.641,774.717 2158.951,859.554 2160.543,987.075 2172.58,1103.788 2216.133,1188.261 
	2228.377,1304.974 2272.654,1453.219 2262.902,1527.607 2253.871,1644.683 2265.391,1718.883 2245.188,1804.255 2224.471,1846.941 
	2203.574,1868.544 2204.096,1910.866 2193.648,1921.677 2183.028,1932.487 2172.409,1922.039 2151.135,1922.212 2129.896,1922.559 
	2087.037,1901.838 2044.523,1902.375 2033.729,1891.927 1991.045,1871.208 1980.25,1860.571 1991.045,1871.208 2001.835,1881.654 
	2012.455,1892.101 2023.284,1902.547 2034.075,1913.184 2044.87,1923.632 2066.315,1944.524 2087.937,1965.607 2098.556,1976.056 
	2098.902,1997.312 "/>
<polyline fill="none" stroke="#010101" stroke-width="0.5" stroke-linecap="round" stroke-miterlimit="10" points="
	1227.533,318.659 1227.533,318.659 1238.499,318.659 1244,312.985 1254.792,301.831 1265.792,290.674 1271.258,285.001 
	1276.586,279.519 1282.084,273.845 1287.55,268.362 1293.05,262.69 1298.378,257.207 1293.05,262.69 1282.258,285.001 
	1276.757,290.5 1277.104,312.639 1266.311,334.779 1266.484,345.761 1266.657,356.727 1261.157,362.401 1266.831,367.9 
	1272.33,373.209 1294.468,373.036 1305.643,383.831 1327.781,394.639 1372.058,405.087 1410.663,399.067 1471.233,403.841 
	1510.01,408.804 1586.874,385.784 1647.444,379.401 1691.374,356.727 1751.944,350.362 1818.014,349.653 1861.912,337.961 
	1917.191,337.252 1966.76,342.042 2005.574,347.181 2049.504,335.488 2065.969,329.814 2082.434,323.969 2088.107,329.468 
	2098.902,318.295 "/>
<polyline fill="none" stroke="#010101" stroke-width="0.5" stroke-linecap="round" stroke-miterlimit="10" points="
	1226.635,318.295 1226.635,318.295 1226.979,339.552 1237.808,350 1259.22,371.083 1280.84,391.976 1291.633,402.423 
	1302.252,412.887 1313.079,423.507 1323.871,433.953 1334.664,444.399 1345.492,454.847 1334.664,444.399 1291.806,423.68 
	1281.014,413.232 1238.499,413.77 1195.813,393.048 1174.573,393.395 1153.299,393.568 1142.507,383.12 1132.061,393.93 
	1121.614,404.741 1122.132,447.236 1101.24,468.666 1080.519,511.525 1060.317,596.725 1072.01,671.098 1062.808,788 
	1053.26,862.562 1097.71,1010.807 1109.749,1127.52 1153.472,1211.818 1165.545,1328.721 1167.309,1456.054 1189.621,1540.891 
	1191.04,1647.157 1181.665,1742.803 1172.083,1817.365 1194.395,1902.011 1205.395,1933.904 1216.533,1965.607 1205.914,1976.4 
	1227.533,1997.312 "/>
<polyline fill="none" stroke="#010101" stroke-width="0.5" stroke-linecap="round" stroke-miterlimit="10" points="
	1227.533,1997.312 1227.533,1997.312 1206.087,1976.4 1216.533,1965.607 1205.567,1933.904 1194.395,1902.011 1172.083,1817.365 
	1181.838,1742.976 1191.213,1647.157 1189.794,1540.891 1167.482,1456.227 1165.892,1328.721 1153.853,1211.992 1110.268,1127.69 
	1098.229,1010.979 1053.779,862.735 1063.499,788.173 1072.563,671.287 1061.044,597.071 1081.209,511.888 1101.966,469.03 
	1122.858,447.6 1122.305,405.087 1132.96,394.277 1143.406,383.484 1154.026,394.104 1175.266,393.757 1196.539,393.395 
	1239.398,414.114 1281.877,413.596 1292.531,424.215 1335.39,444.763 1346.183,455.383 1335.39,444.763 1324.564,434.317 
	1313.771,423.853 1303.152,413.405 1292.359,402.959 1281.531,392.339 1260.119,371.429 1238.499,350.535 1227.879,339.916 
	1227.533,318.659 "/>
<polyline fill="none" stroke="#010101" stroke-width="0.5" stroke-linecap="round" stroke-miterlimit="10" points="
	1238.327,1986.14 1238.327,1986.14 1216.879,1965.418 1227.152,1954.626 1216.016,1923.268 1204.841,1891.754 1182.185,1807.801 
	1191.385,1733.756 1200.068,1638.664 1198.131,1533.107 1175.266,1449.153 1172.983,1322.512 1160.046,1206.683 1116.287,1123.092 
	1103.557,1007.087 1058.553,860.263 1067.582,786.218 1075.918,669.869 1064.052,596.362 1083.529,511.525 1103.73,468.839 
	1124.449,447.409 1123.551,405.087 1133.998,394.466 1144.271,383.657 1155.099,393.93 1176.165,393.568 1197.231,393.222 
	1239.918,413.405 1282.084,412.696 1292.877,422.971 1335.39,443.346 1346.183,453.619 1335.39,443.346 1324.737,432.898 
	1313.944,422.625 1303.152,412.35 1292.531,401.904 1281.705,391.631 1260.119,370.91 1238.672,350.189 1227.879,339.916 
	1227.533,318.659 "/>
<polyline fill="none" stroke="#010101" stroke-width="0.5" stroke-linecap="round" stroke-miterlimit="10" points="1244,1991.638 
	1244,1991.638 1222.38,1970.919 1232.653,1960.108 1221.307,1928.577 1210.168,1897.065 1186.957,1812.764 1195.985,1738.548 
	1204.323,1643.092 1202.006,1537.172 1179.001,1452.872 1175.991,1325.886 1162.881,1209.69 1118.604,1126.1 1105.494,1009.733 
	1059.798,862.562 1068.653,788.346 1076.61,671.633 1064.398,597.78 1083.7,512.598 1103.903,469.739 1124.623,448.118 
	1123.551,405.796 1133.998,394.985 1144.271,384.193 1155.099,394.466 1176.337,393.93 1197.405,393.568 1240.264,413.77 
	1282.604,412.887 1293.397,423.143 1336.256,443.346 1347.083,453.792 1336.256,443.346 1325.464,433.071 1314.671,422.625 
	1303.67,412.35 1292.877,401.904 1282.084,391.631 1260.466,370.91 1238.845,350.189 1228.052,339.916 1227.533,318.659 "/>
<polyline fill="none" stroke="#010101" stroke-width="0.5" stroke-linecap="round" stroke-miterlimit="10" points="
	1260.466,1985.793 1260.466,1985.793 1238.845,1965.245 1249.12,1954.452 1237.808,1923.095 1226.289,1891.754 1203.077,1807.974 
	1211.759,1733.756 1219.89,1638.473 1217.087,1533.107 1193.875,1449.153 1190.521,1322.685 1177.03,1206.855 1132.58,1123.627 
	1119.124,1007.796 1073.081,861.145 1081.763,787.118 1089.374,670.751 1076.782,597.244 1095.739,512.234 1115.767,469.548 
	1136.315,447.945 1135.244,405.623 1145.517,394.813 1155.79,384.002 1166.582,394.277 1187.684,393.757 1208.751,393.222 
	1251.61,413.232 1293.743,412.177 1304.57,422.452 1347.256,442.462 1358.048,452.737 1347.256,442.462 1336.43,432.189 
	1325.637,421.916 1314.843,411.641 1304.016,401.368 1293.224,391.093 1271.603,370.545 1249.845,350 1239.018,339.725 
	1238.499,318.659 "/>
<polyline fill="none" stroke="#010101" stroke-width="0.5" stroke-linecap="round" stroke-miterlimit="10" points="
	1276.93,1980.119 1276.93,1980.119 1255.138,1959.762 1265.411,1948.778 1253.721,1917.611 1242.235,1886.255 1218.297,1802.491 
	1226.461,1728.446 1234.071,1633.163 1230.543,1527.607 1206.813,1444.017 1202.73,1317.375 1188.376,1201.735 1143.406,1118.662 
	1129.05,1003.006 1082.109,856.717 1090.274,782.499 1096.985,666.15 1084.047,592.644 1102.484,507.633 1122.132,464.773 
	1142.68,442.981 1141.262,400.831 1151.535,389.849 1161.637,379.057 1172.603,389.14 1193.704,388.621 1214.769,387.912 
	1257.629,407.56 1299.795,406.142 1310.761,416.415 1353.621,436.081 1364.413,446.354 1353.621,436.081 1342.655,425.979 
	1331.829,415.707 1320.863,405.432 1310.07,395.348 1299.069,385.075 1277.277,364.7 1255.519,344.344 1244.692,334.069 
	1244,312.985 "/>
<polyline fill="none" stroke="#010101" stroke-width="0.5" stroke-linecap="round" stroke-miterlimit="10" points="
	1320.863,1968.617 1320.863,1968.617 1298.724,1948.607 1308.651,1937.433 1296.578,1906.438 1284.368,1875.271 1258.873,1792.027 
	1265.584,1717.827 1271.085,1622.371 1265.584,1516.988 1240.091,1433.742 1233.553,1307.102 1216.879,1191.807 1170.319,1109.635 
	1153.68,994.15 1103.73,848.743 1110.441,774.543 1114.869,658.004 1100.547,584.67 1117.187,499.315 1136.142,456.091 
	1156.136,433.78 1153.853,391.631 1163.954,380.647 1173.847,369.492 1185.02,379.401 1206.087,378.348 1227.152,377.274 
	1270.393,396.231 1312.525,393.93 1323.698,403.841 1366.904,422.798 1378.077,432.708 1366.904,422.798 1355.731,412.887 
	1344.765,402.786 1333.592,392.857 1322.454,382.775 1311.454,372.847 1289.315,352.835 1267.004,332.824 1256.038,322.914 
	1254.792,301.831 "/>
<polyline fill="none" stroke="#010101" stroke-width="0.5" stroke-linecap="round" stroke-miterlimit="10" points="
	1359.639,1973.564 1359.639,1973.564 1336.81,1953.744 1346.703,1942.397 1333.973,1911.23 1321.036,1880.063 1293.95,1796.281 
	1299.588,1721.011 1303.67,1624.481 1296.405,1518.216 1269.148,1434.452 1260.466,1306.756 1241.855,1190.389 1193.322,1108.216 
	1174.747,991.85 1121.959,845.733 1127.459,770.635 1130.123,652.694 1114.35,579.014 1129.916,492.397 1148.181,448.309 
	1168.001,425.633 1165.165,383.12 1175.093,371.619 1185.02,360.272 1196.332,370.201 1217.606,368.782 1238.845,367.364 
	1282.951,385.784 1325.464,382.775 1336.983,392.686 1380.914,411.105 1392.226,421.034 1380.914,411.105 1369.567,401.195 
	1358.222,391.267 1346.875,381.356 1335.39,371.429 1324.044,361.519 1301.388,341.68 1278.523,321.841 1267.175,311.93 
	1265.792,290.674 "/>
<polyline fill="none" stroke="#010101" stroke-width="0.5" stroke-linecap="round" stroke-miterlimit="10" points="
	1409.244,1978.528 1409.244,1978.528 1385.861,1959.054 1395.581,1947.361 1381.778,1916.194 1368.15,1885.2 1338.574,1801.592 
	1342.275,1725.609 1343.866,1628.2 1333.8,1521.225 1304.223,1437.634 1292.15,1309.056 1270.393,1192.344 1219.37,1110.69 
	1197.578,993.978 1140.743,848.208 1144.271,772.244 1143.926,653.387 1126.215,579.533 1139.498,491.877 1156.863,447.063 
	1176.337,423.68 1172.256,380.82 1182.011,369.128 1191.558,357.436 1203.25,367 1224.698,365.063 1246.109,363.109 
	1290.94,380.474 1333.8,376.393 1345.492,386.13 1390.289,403.495 1402.152,413.061 1390.289,403.495 1378.596,393.757 
	1366.904,384.002 1355.211,374.265 1343.519,364.7 1331.829,354.963 1308.271,335.488 1284.888,316.185 1273.229,306.431 
	1271.258,285.001 "/>
<polyline fill="none" stroke="#010101" stroke-width="0.5" stroke-linecap="round" stroke-miterlimit="10" points="
	1464.487,1977.819 1464.487,1977.819 1440.238,1958.88 1449.786,1946.825 1435.085,1916.003 1420.383,1885.2 1388.352,1801.954 
	1389.769,1725.438 1388.524,1627.491 1375.242,1520.343 1343.175,1437.098 1327.401,1308.347 1302.079,1191.634 1248.427,1111.053 
	1223.278,994.322 1161.81,849.279 1163.228,772.935 1159.319,653.576 1139.325,579.723 1150.291,491.168 1166.411,445.645 
	1185.193,421.552 1179.865,378.519 1189.276,366.482 1198.649,354.427 1210.861,363.818 1232.307,361.155 1253.721,358.509 
	1299.242,374.802 1342.275,369.492 1354.347,378.865 1399.835,394.985 1411.908,404.376 1399.835,394.985 1387.798,385.61 
	1375.759,376.22 1363.722,366.829 1351.684,357.436 1339.645,348.063 1315.535,329.105 1291.287,310.339 1279.248,300.948 
	1276.586,279.519 "/>
<polyline fill="none" stroke="#010101" stroke-width="0.5" stroke-linecap="round" stroke-miterlimit="10" points="
	1508.419,1966.127 1508.419,1966.127 1483.79,1947.896 1492.992,1935.669 1477.598,1905.21 1462.205,1874.754 1428.374,1792.217 
	1427.994,1715.872 1424.637,1618.116 1408.863,1511.141 1375.068,1428.778 1356.111,1300.546 1328.299,1184.544 1272.849,1105.208 
	1245.037,989.204 1180.248,845.733 1180.039,769.407 1173.5,650.204 1151.708,576.886 1160.564,488.332 1175.82,442.462 
	1194.048,417.833 1187.684,375.146 1196.885,362.763 1205.914,350.535 1218.124,359.753 1239.572,356.554 1260.983,353.372 
	1306.853,368.608 1349.712,362.228 1361.957,371.429 1407.826,386.493 1420.036,395.694 1407.826,386.493 1395.581,377.464 
	1383.197,368.246 1370.985,359.217 1358.775,350 1346.529,340.971 1321.934,322.55 1297.478,304.303 1285.268,295.274 
	1282.084,273.845 "/>
<polyline fill="none" stroke="#010101" stroke-width="0.5" stroke-linecap="round" stroke-miterlimit="10" points="
	1574.49,1965.245 1574.49,1965.245 1549.168,1947.896 1558.024,1935.133 1541.35,1905.037 1524.886,1874.754 1487.871,1792.927 
	1484.861,1715.872 1477.943,1617.581 1458.468,1510.432 1421.456,1428.605 1397.898,1300.028 1365.831,1184.024 1307.407,1106.09 
	1275.167,990.259 1204.841,848.035 1202.006,770.998 1191.213,651.276 1166.755,578.114 1172.603,488.505 1186.266,441.753 
	1203.804,416.415 1195.985,373.556 1204.667,360.808 1213.525,348.234 1226.115,356.918 1247.527,353.008 1268.975,349.118 
	1315.882,362.763 1358.775,354.963 1371.332,363.818 1418.099,377.464 1430.829,386.13 1418.099,377.464 1405.509,368.608 
	1392.779,359.926 1380.187,351.071 1367.423,342.389 1354.694,333.533 1329.372,315.996 1304.016,298.474 1291.459,289.792 
	1287.55,268.362 "/>
<polyline fill="none" stroke="#010101" stroke-width="0.5" stroke-linecap="round" stroke-miterlimit="10" points="
	1635.232,1959.054 1635.232,1959.054 1609.185,1942.225 1617.521,1929.286 1599.983,1899.365 1582.272,1869.615 1542.423,1788.497 
	1537.096,1711.271 1527.03,1612.615 1503.991,1505.469 1464.315,1424.523 1436.676,1295.945 1400.562,1180.479 1339.438,1104.135 
	1303.325,988.668 1228.226,847.861 1222.898,770.635 1208.231,650.568 1181.458,577.941 1184.466,487.623 1196.712,440.163 
	1213.525,414.287 1204.323,371.429 1212.659,358.335 1221.134,345.399 1234.071,353.717 1255.519,349.118 1276.93,344.517 
	1324.391,356.727 1367.25,347.525 1380.187,356.036 1427.647,368.246 1440.584,376.566 1427.647,368.246 1414.71,359.753 
	1401.635,351.417 1388.696,342.924 1375.586,334.588 1362.649,326.095 1336.637,309.267 1310.588,292.629 1297.478,284.12 
	1293.05,262.69 "/>
<polyline fill="none" stroke="#010101" stroke-width="0.5" stroke-linecap="round" stroke-miterlimit="10" points="
	1678.957,1936.378 1678.957,1936.378 1652.771,1920.431 1660.727,1907.339 1642.497,1878.281 1624.059,1849.067 1582.446,1769.715 
	1574.834,1693.216 1562.244,1595.613 1536.576,1490.058 1494.79,1410.721 1463.796,1284.082 1424.983,1170.377 1362.13,1096.161 
	1323.145,982.647 1244.863,845.024 1237.427,768.698 1219.543,649.857 1191.04,578.479 1191.558,488.867 1202.386,441.564 
	1218.297,415.187 1208.024,373.036 1216.016,359.753 1223.971,346.643 1237.081,354.617 1258.148,349.48 1279.248,344.344 
	1326.708,355.136 1369.014,344.861 1382.124,352.835 1429.411,363.645 1442.694,371.619 1429.411,363.645 1416.335,355.672 
	1403.225,347.698 1390.115,339.725 1377.005,331.769 1363.722,323.796 1337.5,307.849 1311.281,291.729 1298.171,283.773 
	1293.05,262.69 "/>
<polyline fill="none" stroke="#010101" stroke-width="0.5" stroke-linecap="round" stroke-miterlimit="10" points="
	1739.562,1930.186 1739.562,1930.186 1712.615,1914.947 1720.225,1901.493 1700.923,1872.626 1681.619,1843.932 1636.998,1765.461 
	1627.069,1688.598 1611.33,1590.668 1582.099,1485.283 1537.649,1406.64 1502.574,1280.017 1459.714,1166.831 1394.197,1094.224 
	1351.303,981.039 1268.248,845.024 1258.32,768.161 1236.735,649.148 1205.741,578.305 1203.423,487.967 1212.832,439.971 
	1228.052,413.061 1216.36,370.719 1223.971,357.263 1231.58,343.806 1245.037,351.417 1266.138,345.572 1287.205,339.725 
	1335.217,349.118 1377.523,337.425 1390.979,345.052 1438.993,354.427 1452.45,362.054 1438.993,354.427 1425.537,346.816 
	1412.081,339.207 1398.625,331.578 1385.134,323.969 1371.678,316.358 1344.765,301.12 1317.68,285.884 1304.223,278.272 
	1298.378,257.207 "/>
<polyline fill="none" stroke="#010101" stroke-width="0.5" stroke-linecap="round" stroke-miterlimit="10" points="
	1816.425,1907.147 1816.425,1907.147 1788.784,1893.155 1795.875,1879.353 1775.154,1851.542 1754.608,1823.729 1706.423,1747.403 
	1692.967,1671.249 1672.764,1574.186 1638.588,1470.219 1590.608,1393.719 1549.688,1269.033 1501.674,1157.976 1432.802,1088.379 
	1384.961,977.511 1295.541,845.56 1282.084,769.216 1254.965,651.45 1220.615,582.024 1214.25,492.05 1221.307,443.69 
	1235.317,416.069 1221.688,374.438 1228.745,360.635 1235.664,346.816 1249.464,353.717 1270.219,346.989 1291.113,340.089 
	1339.438,347.352 1381.087,333.707 1394.89,340.625 1443.421,347.872 1457.051,354.79 1443.421,347.872 1429.618,340.798 
	1415.782,333.896 1401.981,326.806 1388.143,319.904 1374.342,312.812 1346.703,298.82 1319.099,285.001 1305.262,277.926 
	1298.378,257.207 "/>
<polyline fill="none" stroke="#010101" stroke-width="0.5" stroke-linecap="round" stroke-miterlimit="10" points="
	1855.203,1912.112 1855.203,1912.112 1827.044,1898.829 1833.754,1884.664 1812.169,1857.214 1790.723,1829.766 1740.426,1753.958 
	1725.032,1677.44 1702.167,1580.204 1665.328,1476.255 1615.03,1400.621 1570.753,1275.935 1519.765,1165.24 1448.713,1096.87 
	1397.725,986.177 1304.396,855.471 1288.969,778.971 1258.873,661.014 1222.552,591.935 1213.87,501.441 1219.89,452.546 
	1233.38,424.389 1218.47,382.775 1225.215,368.608 1231.962,354.617 1246.109,361.346 1266.831,353.908 1287.55,346.47 
	1336.637,352.49 1378.077,337.788 1392.226,344.517 1441.104,350.535 1455.287,357.263 1441.104,350.535 1427.128,343.806 
	1412.945,337.079 1398.971,330.35 1384.788,323.796 1370.812,317.067 1342.655,303.594 1314.498,290.138 1300.315,283.582 
	1293.05,262.69 "/>
<polyline fill="none" stroke="#010101" stroke-width="0.5" stroke-linecap="round" stroke-miterlimit="10" points="
	1915.945,1916.902 1915.945,1916.902 1887.062,1904.675 1893.113,1890.146 1870.422,1863.579 1847.766,1836.84 1794.079,1762.813 
	1775.329,1686.833 1748.417,1590.133 1706.941,1487.411 1653.289,1413.559 1603.685,1290.1 1547.75,1181.36 1473.515,1115.654 
	1417.719,1006.723 1318.717,879.391 1299.969,803.411 1264.72,686.163 1225.389,618.328 1212.832,527.818 1216.879,478.403 
	1229.125,449.71 1212.659,408.459 1218.677,394.104 1224.871,379.765 1239.225,385.784 1259.739,377.637 1280.287,369.319 
	1329.718,373.209 1370.812,356.727 1385.341,362.763 1434.739,366.829 1449.095,373.036 1434.739,366.829 1420.209,360.635 
	1405.855,354.617 1391.36,348.407 1377.005,342.215 1362.649,336.197 1333.8,323.796 1304.916,311.568 1290.56,305.547 
	1282.258,284.829 "/>
<polyline fill="none" stroke="#010101" stroke-width="0.5" stroke-linecap="round" stroke-miterlimit="10" points="
	1954.377,1910.866 1954.377,1910.866 1925.146,1899.365 1930.992,1884.664 1907.436,1858.442 1884.051,1832.412 1828.291,1759.632 
	1807.569,1683.823 1777.993,1587.469 1733.888,1485.63 1678.091,1412.85 1625.132,1290.463 1566.326,1182.606 1490.188,1118.662 
	1431.382,1010.979 1328.645,885.756 1307.924,809.965 1269.494,693.425 1228.399,626.301 1213.525,535.965 1216.187,486.376 
	1227.879,457.165 1210.168,416.242 1215.842,401.713 1221.688,387.03 1236.39,392.857 1256.729,384.002 1277.104,375.146 
	1326.708,377.81 1367.63,360.272 1382.124,365.946 1431.729,368.782 1446.431,374.438 1431.729,368.782 1417.201,362.937 
	1402.499,357.091 1387.971,351.417 1373.269,345.572 1358.775,339.725 1329.545,328.224 1300.315,316.704 1285.613,310.859 
	1276.757,290.5 "/>
<polyline fill="none" stroke="#010101" stroke-width="0.5" stroke-linecap="round" stroke-miterlimit="10" points="
	1998.653,1921.33 1998.653,1921.33 1969.077,1910.52 1974.405,1895.646 1950.295,1869.962 1926.047,1844.277 1868.312,1772.724 
	1845.448,1697.279 1813.415,1601.461 1766.474,1500.159 1708.567,1428.605 1652.218,1307.102 1590.401,1200.489 1512.5,1138.328 
	1450.686,1031.525 1344.419,908.605 1321.727,833.159 1280.114,716.983 1237.254,650.912 1219.89,560.594 1221.307,510.643 
	1232.134,481.067 1213.352,440.509 1218.851,425.633 1224.317,410.932 1239.018,416.242 1259.393,406.851 1279.594,397.476 
	1329.545,398.894 1369.914,380.112 1384.788,385.61 1434.565,387.03 1449.439,392.513 1434.565,387.03 1419.865,381.702 
	1404.989,376.22 1390.115,370.719 1375.413,365.409 1360.539,359.926 1330.963,349.118 1301.215,338.323 1286.512,332.824 
	1277.104,312.639 "/>
<polyline fill="none" stroke="#010101" stroke-width="0.5" stroke-linecap="round" stroke-miterlimit="10" points="
	2020.792,1932.123 2020.792,1932.123 1991.045,1921.85 1996.165,1906.803 1971.395,1881.654 1946.593,1856.332 1887.269,1785.836 
	1862.983,1710.563 1828.979,1615.279 1779.929,1514.687 1720.604,1444.189 1661.8,1323.585 1597.873,1218.028 1518.348,1157.267 
	1454.387,1051.538 1345.492,930.57 1321.208,855.299 1277.45,739.831 1233,674.47 1213.87,584.323 1214.423,534.199 
	1224.698,504.452 1205.014,464.238 1210.168,449.191 1215.289,434.317 1230.37,439.454 1250.364,429.525 1270.565,419.788 
	1320.517,420.323 1360.712,400.659 1375.586,405.796 1425.71,406.332 1440.584,411.468 1425.71,406.332 1410.663,401.195 
	1395.788,396.059 1380.707,390.92 1365.831,385.784 1350.957,380.647 1321.036,370.374 1291.113,359.926 1276.239,354.79 
	1266.311,334.779 "/>
<polyline fill="none" stroke="#010101" stroke-width="0.5" stroke-linecap="round" stroke-miterlimit="10" points="
	2031.965,1942.934 2031.965,1942.934 2002.01,1932.832 2007.163,1917.784 1982.189,1892.636 1957.212,1867.489 1897.334,1796.99 
	1872.567,1721.72 1837.835,1626.437 1788.06,1526.017 1728.216,1455.518 1668.509,1334.913 1603.892,1229.356 1523.813,1168.959 
	1458.988,1063.403 1349.366,942.609 1324.564,867.336 1279.94,751.869 1234.971,686.507 1215.289,596.189 1215.462,546.065 
	1225.735,516.126 1205.741,475.93 1210.861,460.883 1216.016,445.818 1230.889,450.955 1251.091,441.044 1271.085,430.944 
	1321.208,431.307 1361.403,411.279 1376.486,416.415 1426.574,416.606 1441.657,421.743 1426.574,416.606 1411.527,411.468 
	1396.653,406.505 1381.606,401.368 1366.558,396.403 1351.51,391.267 1321.554,381.183 1291.459,370.91 1276.413,365.946 
	1266.484,345.761 "/>
<polyline fill="none" stroke="#010101" stroke-width="0.5" stroke-linecap="round" stroke-miterlimit="10" points="
	2054.104,1942.76 2054.104,1942.76 2023.803,1932.832 2028.748,1917.784 2003.253,1892.636 1977.933,1867.662 1917.016,1797.526 
	1891.143,1722.082 1855.203,1626.609 1804.178,1526.189 1743.089,1456.054 1681.792,1335.623 1615.584,1230.238 1534.466,1170.377 
	1468.223,1064.994 1356.458,944.926 1330.79,869.464 1284.542,753.822 1238.672,688.635 1217.953,598.142 1217.606,547.656 
	1227.326,517.371 1206.987,477.175 1211.932,462.112 1216.879,446.89 1231.962,451.837 1252.128,441.564 1272.156,431.48 
	1322.454,431.116 1362.649,410.57 1377.87,415.533 1428.201,415.187 1443.421,420.134 1428.201,415.187 1413.118,410.224 
	1397.898,405.258 1382.851,400.313 1367.63,395.521 1352.548,390.558 1322.107,380.647 1291.806,370.719 1276.757,365.946 
	1266.484,345.761 "/>
<polyline fill="none" stroke="#010101" stroke-width="0.5" stroke-linecap="round" stroke-miterlimit="10" points="
	2054.104,1942.76 2054.104,1942.76 2023.974,1933.005 2028.748,1917.958 2003.428,1893.155 1978.107,1868.371 1917.362,1798.772 
	1891.489,1723.846 1855.546,1628.909 1804.353,1529.198 1743.609,1459.6 1682.346,1340.051 1616.104,1235.375 1535.332,1176.051 
	1469.087,1071.548 1357.702,952.362 1331.829,877.438 1285.613,762.489 1239.918,697.853 1219.024,607.881 1218.47,557.757 
	1228.226,527.646 1207.851,487.623 1212.659,472.558 1217.433,457.511 1232.653,462.474 1252.508,452.201 1272.502,441.926 
	1322.627,441.391 1362.476,421.034 1377.523,425.806 1427.647,425.462 1442.694,430.234 1427.647,425.462 1412.6,420.497 
	1397.553,415.707 1382.504,410.759 1367.25,405.969 1352.203,401.004 1322.107,391.267 1291.978,381.702 1276.93,376.755 
	1266.657,356.727 "/>
<polyline fill="none" stroke="#010101" stroke-width="0.5" stroke-linecap="round" stroke-miterlimit="10" points="
	2059.742,1948.243 2059.742,1948.243 2029.302,1938.506 2034.075,1923.459 2008.58,1898.656 1983.089,1874.043 1921.79,1804.602 
	1895.398,1729.52 1858.731,1634.583 1807.017,1534.872 1745.58,1465.619 1683.385,1345.896 1616.45,1241.396 1535.159,1182.416 
	1468.223,1077.931 1355.938,958.9 1329.545,883.992 1282.604,769.216 1236.39,704.582 1214.769,614.436 1214.042,564.14 
	1223.625,533.837 1202.904,493.988 1207.678,478.768 1212.452,463.703 1227.706,468.493 1247.527,458.046 1267.557,447.773 
	1317.853,446.89 1357.702,426.17 1372.751,431.116 1423.046,430.234 1438.267,435.026 1423.046,430.234 1407.826,425.462 
	1392.779,420.67 1377.523,415.896 1362.476,411.105 1347.256,406.332 1316.953,396.767 1286.686,387.203 1271.603,382.411 
	1261.157,362.401 "/>
<polyline fill="none" stroke="#010101" stroke-width="0.5" stroke-linecap="round" stroke-miterlimit="10" points="
	2065.244,1953.553 2065.244,1953.553 2034.804,1943.988 2039.574,1928.769 2013.876,1903.966 1988.381,1879.182 1926.564,1809.564 
	1899.998,1734.294 1863.159,1639.011 1810.923,1539.127 1749.281,1469.51 1686.603,1349.442 1619.285,1244.595 1537.476,1185.426 
	1470.161,1080.577 1357.148,961.391 1330.583,886.12 1283.295,770.825 1236.735,706 1214.942,615.491 1214.042,565.022 
	1223.798,534.546 1202.904,494.523 1207.678,479.303 1212.452,464.238 1227.706,469.03 1247.7,458.566 1267.729,448.118 
	1318.199,447.236 1358.222,426.344 1373.442,431.116 1423.773,430.234 1438.993,435.026 1423.773,430.234 1408.517,425.462 
	1393.297,420.67 1378.25,415.896 1362.996,411.105 1347.775,406.332 1317.299,396.767 1286.859,387.203 1271.603,382.411 
	1261.157,362.401 "/>
<polyline fill="none" stroke="#010101" stroke-width="0.5" stroke-linecap="round" stroke-miterlimit="10" points="
	2065.244,1953.553 2065.244,1953.553 2034.804,1943.988 2039.574,1928.769 2013.876,1903.966 1988.381,1879.182 1926.564,1809.564 
	1899.998,1734.294 1863.159,1639.011 1810.923,1539.127 1749.281,1469.51 1686.603,1349.442 1619.285,1244.595 1537.476,1185.426 
	1470.161,1080.577 1357.148,961.391 1330.583,886.12 1283.295,770.825 1236.735,706 1214.942,615.491 1214.042,565.022 
	1223.798,534.546 1202.904,494.523 1207.678,479.303 1212.452,464.238 1227.706,469.03 1247.7,458.566 1267.729,448.118 
	1318.199,447.236 1358.222,426.344 1373.442,431.116 1423.773,430.234 1438.993,435.026 1423.773,430.234 1408.517,425.462 
	1393.297,420.67 1378.25,415.896 1362.996,411.105 1347.775,406.332 1317.299,396.767 1286.859,387.203 1271.603,382.411 
	1261.157,362.401 "/>
<polyline fill="none" stroke="#010101" stroke-width="0.5" stroke-linecap="round" stroke-miterlimit="10" points="
	2065.244,1953.553 2065.244,1953.553 2034.804,1943.988 2039.574,1928.769 2013.876,1903.966 1988.381,1879.182 1926.564,1809.564 
	1899.998,1734.294 1863.159,1639.011 1810.923,1539.127 1749.281,1469.51 1686.603,1349.442 1619.285,1244.595 1537.476,1185.426 
	1470.161,1080.577 1357.148,961.391 1330.583,886.12 1283.295,770.825 1236.735,706 1214.942,615.491 1214.042,565.022 
	1223.798,534.546 1202.904,494.523 1207.678,479.303 1212.452,464.238 1227.706,469.03 1247.7,458.566 1267.729,448.118 
	1318.199,447.236 1358.222,426.344 1373.442,431.116 1423.773,430.234 1438.993,435.026 1423.773,430.234 1408.517,425.462 
	1393.297,420.67 1378.25,415.896 1362.996,411.105 1347.775,406.332 1317.299,396.767 1286.859,387.203 1271.603,382.411 
	1261.157,362.401 "/>
<polyline fill="none" stroke="#010101" stroke-width="0.5" stroke-linecap="round" stroke-miterlimit="10" points="
	2065.244,1953.553 2065.244,1953.553 2034.976,1943.988 2039.749,1928.941 2014.254,1904.139 1988.728,1879.353 1927.293,1809.927 
	1901.069,1735.002 1864.401,1640.082 1812.69,1540.354 1751.218,1470.929 1689.057,1351.379 1622.122,1246.895 1540.833,1187.743 
	1473.897,1083.24 1361.403,964.401 1335.217,889.475 1288.103,774.543 1241.855,709.892 1220.443,619.918 1219.543,569.623 
	1229.298,539.338 1208.578,499.486 1213.352,484.25 1218.124,469.03 1233.173,473.976 1253.201,463.529 1273.022,453.256 
	1323.354,452.373 1363.203,431.653 1378.423,436.426 1428.72,435.735 1443.768,440.509 1428.72,435.735 1413.499,430.944 
	1398.244,426.17 1383.197,421.378 1367.977,416.606 1352.93,411.814 1322.627,402.077 1292.359,392.513 1277.104,387.721 
	1266.831,367.9 "/>
<polyline fill="none" stroke="#010101" stroke-width="0.5" stroke-linecap="round" stroke-miterlimit="10" points="
	2059.742,1959.227 2059.742,1959.227 2029.647,1949.489 2034.422,1934.424 2009.273,1909.638 1983.953,1884.836 1923.036,1815.238 
	1897.334,1740.313 1861.22,1645.392 1810.197,1545.681 1749.281,1476.065 1688.02,1356.516 1621.775,1251.842 1541.004,1192.518 
	1474.935,1088.015 1363.376,968.829 1337.674,893.902 1291.459,778.971 1245.59,714.319 1224.698,624.346 1224.144,574.224 
	1233.899,544.11 1213.525,504.087 1218.297,489.041 1223.278,473.976 1238.327,478.94 1258.32,468.666 1278.177,458.393 
	1328.299,457.873 1368.15,437.499 1383.37,442.272 1433.319,441.926 1448.542,446.7 1433.319,441.926 1418.272,436.963 
	1403.225,432.189 1388.143,427.226 1373.096,422.452 1358.048,417.488 1327.781,407.749 1297.651,398.185 1282.604,393.222 
	1272.33,373.209 "/>
<polyline fill="none" stroke="#010101" stroke-width="0.5" stroke-linecap="round" stroke-miterlimit="10" points="
	2059.949,1970.208 2059.949,1970.208 2029.647,1960.281 2034.593,1945.232 2009.273,1920.259 1983.778,1895.11 1922.865,1824.976 
	1897.163,1749.703 1861.22,1654.247 1810.026,1553.638 1749.107,1483.692 1687.64,1363.071 1621.395,1257.687 1540.313,1197.827 
	1474.069,1092.442 1362.303,972.375 1336.637,896.913 1290.387,781.446 1244.519,716.274 1223.798,625.592 1223.452,575.295 
	1233.173,545.01 1212.832,504.798 1217.779,489.56 1222.725,474.513 1237.808,479.303 1257.975,469.201 1278.003,458.928 
	1328.472,458.566 1368.495,438.034 1383.715,442.981 1434.219,442.635 1449.266,447.6 1434.219,442.635 1418.965,437.672 
	1403.745,432.898 1388.696,427.935 1373.442,422.971 1358.395,418.024 1328.127,408.095 1297.651,398.358 1282.604,393.395 
	1272.33,373.209 "/>
<polyline fill="none" stroke="#010101" stroke-width="0.5" stroke-linecap="round" stroke-miterlimit="10" points="
	2059.949,1970.208 2059.949,1970.208 2029.822,1960.108 2034.976,1945.062 2010.002,1919.913 1985.024,1894.764 1925.146,1824.266 
	1900.345,1748.994 1865.647,1653.538 1816.043,1553.118 1756.199,1482.793 1696.495,1362.189 1631.67,1256.632 1551.796,1196.234 
	1486.972,1090.678 1377.179,969.884 1352.376,894.611 1307.753,779.145 1262.956,713.784 1243.272,623.464 1243.446,573.34 
	1253.547,543.228 1233.726,503.032 1238.845,488.158 1243.826,473.093 1258.873,478.059 1279.076,468.13 1299.069,458.22 
	1349.193,458.393 1389.389,438.554 1404.436,443.69 1454.56,443.881 1469.641,448.827 1454.56,443.881 1439.513,438.745 
	1424.464,433.606 1409.417,428.643 1394.543,423.507 1379.496,418.543 1349.366,408.269 1319.443,398.185 1304.396,393.048 
	1294.468,373.036 "/>
<polyline fill="none" stroke="#010101" stroke-width="0.5" stroke-linecap="round" stroke-miterlimit="10" points="
	2060.124,1981.192 2060.124,1981.192 2030.165,1970.919 2035.321,1956.043 2010.52,1930.705 1985.889,1905.557 1926.564,1834.902 
	1902.315,1759.632 1868.14,1664.33 1819.053,1563.911 1759.729,1493.257 1700.923,1372.809 1636.998,1267.08 1557.644,1206.336 
	1493.718,1100.78 1384.788,979.639 1360.539,904.366 1316.608,789.055 1272.33,723.537 1253.201,633.375 1253.721,583.441 
	1263.994,553.503 1244.346,513.307 1249.464,498.416 1254.619,483.368 1269.494,488.505 1289.696,478.768 1309.69,468.839 
	1359.813,469.375 1400.008,449.71 1414.917,455.036 1464.833,455.383 1479.916,460.519 1464.833,455.383 1449.959,450.246 
	1434.912,445.11 1420.036,439.971 1405.163,434.835 1390.115,429.698 1360.159,419.425 1330.409,409.168 1315.362,404.032 
	1305.643,383.831 "/>
<polyline fill="none" stroke="#010101" stroke-width="0.5" stroke-linecap="round" stroke-miterlimit="10" points="
	2049.297,2003.504 2049.297,2003.504 2019.721,1992.521 2025.22,1977.819 2000.971,1952.135 1976.687,1926.467 1918.955,1854.915 
	1896.124,1779.279 1864.059,1683.461 1817.118,1582.159 1759.211,1510.605 1702.894,1389.103 1641.252,1282.489 1563.144,1220.328 
	1501.328,1113.699 1395.061,990.794 1372.405,915.159 1330.963,799.157 1287.932,732.912 1270.565,642.594 1271.985,592.644 
	1282.951,563.067 1264.167,522.509 1269.494,507.806 1274.993,492.933 1289.869,498.416 1310.07,489.041 1330.236,479.649 
	1380.187,481.067 1420.763,462.301 1435.43,467.61 1485.381,469.201 1500.083,474.513 1485.381,469.201 1470.507,463.703 
	1455.631,458.22 1440.931,452.91 1426.057,447.409 1411.181,441.926 1381.606,431.116 1352.03,420.323 1337.154,414.824 
	1327.781,394.639 "/>
<polyline fill="none" stroke="#010101" stroke-width="0.5" stroke-linecap="round" stroke-miterlimit="10" points="
	2049.676,2025.469 2049.676,2025.469 2020.446,2013.95 2026.12,1999.249 2002.735,1973.219 1979.351,1946.999 1923.554,1874.217 
	1902.833,1798.408 1873.261,1702.243 1828.979,1600.232 1773.358,1527.434 1720.225,1405.049 1661.454,1297.191 1585.454,1233.249 
	1526.649,1125.564 1423.946,1000.358 1403.225,924.552 1364.793,808.012 1323.698,740.886 1308.824,650.568 1311.454,600.79 
	1322.973,571.576 1305.434,530.827 1311.107,516.315 1316.953,501.615 1331.482,507.46 1352.03,498.604 1372.405,489.749 
	1421.974,492.397 1462.723,474.875 1477.425,480.531 1527.03,483.368 1541.696,489.041 1527.03,483.368 1512.5,477.521 
	1497.8,471.676 1483.271,466.02 1468.57,460.174 1454.041,454.328 1424.811,442.808 1395.407,431.307 1380.914,425.462 
	1372.058,405.087 "/>
<polyline fill="none" stroke="#010101" stroke-width="0.5" stroke-linecap="round" stroke-miterlimit="10" points="
	2044.177,2031.125 2044.177,2031.125 2015.293,2018.742 2021.521,2004.386 1998.825,1977.646 1976.169,1951.08 1922.312,1877.054 
	1903.733,1801.072 1876.82,1704.371 1835.347,1601.634 1781.692,1527.607 1731.917,1404.339 1676.154,1295.41 1601.92,1229.703 
	1546.124,1120.79 1446.949,993.631 1428.374,917.46 1393.124,800.212 1353.794,732.566 1341.237,642.057 1345.285,592.644 
	1357.529,563.776 1340.857,522.68 1347.083,508.17 1353.274,493.814 1367.63,500.024 1388.143,491.686 1408.69,483.368 
	1458.122,487.45 1499.217,470.794 1513.538,476.985 1562.971,480.894 1577.499,487.085 1562.971,480.894 1548.615,474.875 
	1534.259,468.666 1519.765,462.474 1505.409,456.456 1490.881,450.246 1462.205,438.034 1433.319,425.806 1418.792,419.615 
	1410.663,399.067 "/>
<polyline fill="none" stroke="#010101" stroke-width="0.5" stroke-linecap="round" stroke-miterlimit="10" points="
	2033.383,2053.264 2033.383,2053.264 2005.228,2039.808 2011.937,2025.815 1990.523,1998.367 1969.077,1970.746 1918.78,1895.11 
	1903.387,1818.594 1880.523,1721.373 1843.684,1617.407 1793.387,1541.6 1749.107,1416.913 1698.086,1306.394 1626.896,1237.85 
	1576.081,1127.346 1482.752,996.45 1467.324,920.124 1437.229,802.165 1400.908,733.085 1392.226,642.421 1398.244,593.525 
	1411.701,565.366 1396.827,523.753 1403.572,509.761 1410.283,495.596 1424.292,502.323 1445.185,494.887 1465.906,487.623 
	1514.957,493.641 1556.397,478.94 1570.58,485.495 1619.458,491.513 1633.641,498.242 1619.458,491.513 1605.484,484.959 
	1591.301,478.23 1577.325,471.502 1563.144,464.773 1549.168,458.046 1520.976,444.59 1492.818,431.307 1478.669,424.562 
	1471.233,403.841 "/>
<polyline fill="none" stroke="#010101" stroke-width="0.5" stroke-linecap="round" stroke-miterlimit="10" points="
	2028.055,2058.938 2028.055,2058.938 2000.418,2044.943 2007.338,2031.125 1986.788,2003.33 1966.067,1975.518 1918.056,1899.191 
	1904.597,1822.848 1884.258,1725.801 1850.047,1621.835 1802.067,1545.491 1761.146,1420.632 1713.168,1309.766 1644.26,1240.167 
	1596.456,1129.11 1507.001,997.159 1493.545,921.006 1466.424,803.047 1432.248,733.794 1425.71,643.649 1432.975,595.307 
	1446.949,567.668 1433.319,526.055 1440.238,512.234 1447.329,498.416 1461.132,505.507 1481.853,498.604 1502.574,491.877 
	1551.105,498.951 1592.719,485.321 1606.521,492.397 1654.88,499.486 1668.718,506.389 1654.88,499.486 1641.079,492.397 
	1627.242,485.495 1613.439,478.594 1599.637,471.502 1585.8,464.602 1558.197,450.608 1530.558,436.617 1516.755,429.525 
	1510.01,408.804 "/>
<polyline fill="none" stroke="#010101" stroke-width="0.5" stroke-linecap="round" stroke-miterlimit="10" points="
	2028.055,2058.938 2028.055,2058.938 2000.971,2043.526 2008.58,2030.07 1989.28,2001.375 1969.978,1972.683 1925.525,1894.056 
	1915.599,1817.365 1899.826,1719.418 1870.597,1613.861 1825.974,1535.217 1790.895,1408.595 1748.21,1295.601 1682.519,1222.801 
	1639.833,1109.635 1556.777,973.603 1546.678,896.739 1525.057,777.9 1494.063,706.882 1491.781,616.563 1501.154,568.567 
	1516.375,541.637 1504.682,499.315 1512.327,485.841 1519.938,472.385 1533.568,480.012 1554.633,474.167 1575.734,468.319 
	1623.713,477.694 1666.054,466.02 1679.511,473.629 1727.489,483.022 1740.945,490.631 1727.489,483.022 1714.032,475.395 
	1700.576,467.784 1687.12,460.174 1673.664,452.546 1660.208,444.937 1633.087,429.698 1606.175,414.478 1592.719,406.851 
	1586.874,385.784 "/>
<polyline fill="none" stroke="#010101" stroke-width="0.5" stroke-linecap="round" stroke-miterlimit="10" points="
	2033.383,2053.264 2033.383,2053.264 2007.163,2037.335 2015.118,2024.225 1996.89,1994.994 1978.661,1965.954 1936.837,1886.617 
	1929.399,1810.101 1916.67,1712.518 1890.972,1606.771 1849.183,1527.607 1818.36,1400.793 1779.411,1287.09 1716.523,1213.063 
	1677.574,1099.36 1599.257,961.928 1591.821,885.411 1574.108,766.57 1545.432,695.191 1545.951,605.58 1556.777,558.104 
	1572.69,531.9 1562.451,489.56 1570.407,476.466 1578.364,463.356 1591.474,471.33 1612.749,466.193 1633.814,461.057 
	1681.274,471.849 1723.441,461.592 1736.518,469.548 1784.014,480.358 1797.122,488.332 1784.014,480.358 1770.901,472.385 
	1757.792,464.411 1744.509,456.456 1731.397,448.482 1718.287,440.509 1692.067,424.389 1665.674,408.459 1652.598,400.486 
	1647.444,379.401 "/>
<polyline fill="none" stroke="#010101" stroke-width="0.5" stroke-linecap="round" stroke-miterlimit="10" points="
	2033.383,2053.264 2033.383,2053.264 2007.338,2036.452 2015.847,2023.514 1998.136,1993.593 1980.597,1963.827 1940.747,1882.709 
	1935.42,1805.499 1925.318,1706.844 1902.315,1599.697 1862.466,1518.578 1835,1390.174 1798.886,1274.688 1737.591,1198.189 
	1701.649,1082.705 1626.55,942.089 1621.222,864.69 1606.521,744.604 1579.782,671.996 1582.792,581.66 1595.036,534.199 
	1611.849,508.342 1602.647,465.484 1610.949,452.373 1619.458,439.454 1632.396,447.773 1653.809,443.172 1675.254,438.554 
	1722.715,450.782 1765.574,441.564 1778.511,450.073 1825.974,462.301 1839.081,470.621 1825.974,462.301 1813.033,453.792 
	1799.925,445.472 1787.021,436.963 1773.912,428.643 1760.976,420.134 1734.927,403.321 1708.914,386.493 1695.976,378.174 
	1691.374,356.727 "/>
<polyline fill="none" stroke="#010101" stroke-width="0.5" stroke-linecap="round" stroke-miterlimit="10" points="2038.85,2047.78 
	2038.85,2047.78 2013.529,2030.243 2022.21,2017.495 2005.745,1987.384 1989.105,1957.099 1952.095,1875.271 1949.049,1798.236 
	1942.34,1699.943 1922.865,1592.778 1885.676,1510.778 1862.295,1382.2 1830.055,1266.371 1771.595,1188.452 1739.354,1072.432 
	1669.236,930.224 1666.228,853.171 1655.606,733.448 1631.15,660.305 1636.998,570.678 1650.625,523.926 1668.165,498.604 
	1660.38,455.747 1669.063,442.981 1677.918,430.407 1690.477,439.089 1711.922,435.199 1733.334,431.307 1780.104,444.937 
	1822.963,437.136 1835.725,445.818 1882.459,459.464 1895.224,468.319 1882.459,459.464 1869.729,450.782 1857.139,441.926 
	1844.409,433.244 1831.818,424.389 1819.053,415.707 1793.733,398.185 1768.409,380.647 1755.854,371.792 1751.944,350.362 "/>
<polyline fill="none" stroke="#010101" stroke-width="0.5" stroke-linecap="round" stroke-miterlimit="10" points="
	2044.349,2042.108 2044.349,2042.108 2019.721,2023.878 2028.955,2011.65 2013.529,1981.019 1998.136,1950.544 1964.132,1868.198 
	1963.957,1791.681 1960.568,1693.907 1944.828,1587.122 1910.999,1504.587 1892.042,1376.354 1864.23,1260.351 1808.78,1180.998 
	1781.003,1064.994 1716.177,921.542 1716.004,845.198 1709.432,726.012 1687.64,652.694 1696.495,563.949 1711.749,518.081 
	1729.979,493.641 1723.614,450.782 1732.816,438.554 1741.845,426.344 1754.229,435.372 1775.501,432.189 1796.915,429.179 
	1842.784,444.228 1885.676,438.034 1897.888,447.063 1943.757,462.112 1955.969,471.33 1943.757,462.112 1931.546,453.083 
	1919.302,443.881 1906.918,434.835 1894.706,425.633 1882.459,416.606 1858.038,398.358 1833.407,380.112 1821.199,370.91 
	1818.014,349.653 "/>
<polyline fill="none" stroke="#010101" stroke-width="0.5" stroke-linecap="round" stroke-miterlimit="10" points="
	2049.852,2036.452 2049.852,2036.452 2025.566,2017.669 2035.146,2005.632 2020.274,1974.81 2005.574,1943.815 1973.505,1860.76 
	1975.098,1784.243 1973.852,1686.298 1960.568,1578.976 1928.535,1495.731 1912.764,1366.964 1887.439,1250.251 1833.754,1169.668 
	1808.605,1052.782 1746.999,907.896 1748.59,831.395 1744.68,712.02 1724.652,638.167 1735.653,549.784 1751.771,504.087 
	1770.556,480.012 1765.228,437.136 1774.601,425.098 1784.014,412.887 1796.222,422.452 1817.636,419.788 1839.081,417.124 
	1884.604,433.244 1927.636,427.935 1939.676,437.325 1985.199,453.445 1997.236,462.994 1985.199,453.445 1973.159,444.055 
	1961.122,434.662 1949.049,425.271 1937.012,415.896 1924.972,406.505 1900.897,387.721 1876.613,368.782 1864.576,359.391 
	1861.912,337.961 "/>
<polyline fill="none" stroke="#010101" stroke-width="0.5" stroke-linecap="round" stroke-miterlimit="10" points="
	2055.143,2030.952 2055.143,2030.952 2031.794,2011.478 2041.514,1999.785 2027.712,1968.791 2014.083,1937.624 1984.471,1854.015 
	1988.206,1778.035 1989.798,1680.624 1979.696,1573.666 1950.12,1489.885 1938.083,1361.48 1916.291,1244.768 1865.301,1163.114 
	1843.509,1046.228 1786.642,900.458 1790.205,824.477 1789.858,705.637 1772.148,631.784 1785.431,544.11 1802.76,499.315 
	1822.271,475.757 1818.189,433.071 1827.908,421.206 1837.492,409.515 1849.354,419.252 1870.597,417.315 1892.042,415.187 
	1937.012,432.535 1979.696,428.47 1991.563,438.208 2036.393,455.556 2048.087,465.311 2036.393,455.556 2024.702,445.992 
	2012.837,436.254 2001.146,426.515 1989.452,416.778 1977.762,407.213 1954.377,387.721 1930.82,368.419 1919.126,358.682 
	1917.191,337.252 "/>
<polyline fill="none" stroke="#010101" stroke-width="0.5" stroke-linecap="round" stroke-miterlimit="10" points="
	2060.642,2025.296 2060.642,2025.296 2037.985,2005.459 2047.876,1994.112 2034.976,1962.945 2022.21,1931.778 1995.126,1847.996 
	2000.593,1772.724 2004.674,1676.196 1997.407,1569.758 1970.323,1486.165 1961.468,1358.471 1942.857,1242.104 1894.531,1159.758 
	1875.749,1043.391 1822.963,897.275 1828.637,822.177 1831.297,704.218 1815.525,630.556 1830.919,543.938 1849.354,499.833 
	1869.176,477.175 1866.169,434.488 1876.096,423.143 1886.022,411.814 1897.334,421.743 1918.78,420.323 1940.022,418.715 
	1984.124,437.136 2026.638,434.317 2037.985,444.228 2082.088,462.474 2093.399,472.385 2082.088,462.474 2070.743,452.546 
	2059.225,442.635 2047.876,432.708 2036.567,422.798 2025.22,412.887 2002.389,393.222 1979.696,373.382 1968.385,363.472 
	1966.76,342.042 "/>
<polyline fill="none" stroke="#010101" stroke-width="0.5" stroke-linecap="round" stroke-miterlimit="10" points="
	2071.643,2014.123 2071.643,2014.123 2049.297,1994.302 2059.396,1983.129 2047.188,1951.962 2034.976,1920.968 2009.448,1837.722 
	2016.193,1763.351 2021.692,1667.876 2016.193,1562.493 1990.698,1479.265 1984.124,1352.625 1967.484,1237.157 1920.891,1155.141 
	1904.254,1039.672 1854.304,894.267 1861.049,819.876 1865.477,703.336 1851.118,630.02 1867.758,544.647 1886.715,501.252 
	1906.743,479.112 1904.426,436.963 1914.527,425.806 1924.454,414.824 1935.595,424.751 1956.694,423.68 1977.762,422.625 
	2020.967,441.391 2063.134,439.263 2074.271,449.191 2117.513,468.13 2128.65,478.059 2117.513,468.13 2106.512,458.046 
	2095.374,448.118 2084.373,438.208 2073.232,428.107 2062.059,418.197 2039.921,398.185 2017.782,378.174 2006.609,368.246 
	2005.574,347.181 "/>
<polyline fill="none" stroke="#010101" stroke-width="0.5" stroke-linecap="round" stroke-miterlimit="10" points="
	2082.434,2002.968 2082.434,2002.968 2060.642,1982.609 2070.914,1971.801 2059.225,1940.461 2047.705,1909.103 2023.803,1825.338 
	2031.965,1751.123 2039.574,1655.84 2036.015,1550.455 2012.283,1466.69 2008.234,1340.051 1993.88,1224.394 1948.878,1141.338 
	1934.556,1025.68 1887.614,879.391 1895.741,805.175 1902.49,688.809 1889.55,615.317 1907.989,530.118 1927.636,487.258 
	1948.185,465.484 1946.768,423.333 1956.865,412.35 1967.142,401.542 1978.107,411.814 1999.172,411.105 2020.274,410.397 
	2063.134,430.061 2105.266,428.816 2116.267,438.916 2159.126,458.755 2169.916,468.839 2159.126,458.755 2148.125,448.482 
	2137.334,438.208 2126.368,428.107 2115.538,417.833 2104.572,407.56 2082.78,387.203 2060.988,366.829 2050.197,356.554 
	2049.504,335.488 "/>
<polyline fill="none" stroke="#010101" stroke-width="0.5" stroke-linecap="round" stroke-miterlimit="10" points="
	2087.937,1997.485 2087.937,1997.485 2066.315,1976.938 2076.588,1966.127 2065.069,1934.613 2053.725,1903.257 2030.548,1819.493 
	2039.231,1745.275 2047.188,1649.992 2044.523,1544.609 2021.139,1460.654 2017.957,1334.031 2004.499,1218.201 1960.051,1134.955 
	1946.421,1019.125 1900.552,872.473 1909.024,798.446 1916.67,682.08 1904.254,608.417 1923.208,523.58 1943.236,480.705 
	1963.75,459.102 1962.714,416.951 1972.987,406.142 1983.261,395.176 1994.055,405.623 2015.118,404.914 2036.222,404.376 
	2078.874,424.389 2121.212,423.333 2132.006,433.606 2174.691,453.619 2185.518,463.892 2174.691,453.619 2163.9,443.346 
	2153.105,433.071 2142.279,422.798 2131.484,412.523 2120.694,402.25 2098.902,381.702 2077.281,361.155 2066.486,350.897 
	2065.969,329.814 "/>
<polyline fill="none" stroke="#010101" stroke-width="0.5" stroke-linecap="round" stroke-miterlimit="10" points="
	2098.902,1997.312 2098.902,1997.312 2077.281,1976.591 2087.555,1965.78 2076.242,1934.251 2065.069,1902.72 2041.859,1818.42 
	2050.887,1744.221 2059.225,1648.574 2056.942,1542.846 2033.904,1458.544 2030.894,1331.54 2017.782,1215.191 1973.505,1131.583 
	1960.222,1015.234 1914.527,868.045 1923.554,793.674 1931.546,676.943 1919.302,603.089 1938.43,517.908 1958.805,475.048 
	1979.351,453.445 1978.45,411.105 1988.728,400.313 1999.172,389.502 2010.002,399.775 2031.24,399.413 2052.305,398.894 
	2095.164,419.079 2137.506,418.197 2148.299,428.47 2191.191,448.655 2201.985,459.102 2191.191,448.655 2180.365,438.38 
	2169.57,427.935 2158.779,417.66 2147.778,407.387 2136.987,396.94 2115.367,376.22 2093.781,355.499 2082.955,345.226 
	2082.434,323.969 "/>
<polyline fill="none" stroke="#010101" stroke-width="0.5" stroke-linecap="round" stroke-miterlimit="10" points="
	2098.902,1997.312 2098.902,1997.312 2077.453,1976.591 2087.729,1965.78 2076.588,1934.424 2065.416,1902.911 2042.76,1818.956 
	2051.786,1744.929 2060.642,1649.63 2058.531,1544.072 2035.839,1460.137 2033.383,1333.495 2020.621,1217.491 1976.687,1133.9 
	1963.957,1018.069 1918.955,871.055 1927.981,797.028 1936.319,680.853 1924.454,607.171 1943.929,522.335 1964.304,479.649 
	1984.853,458.22 1984.124,415.896 1994.397,405.087 2004.846,394.466 2015.465,404.741 2036.739,404.376 2057.807,404.032 
	2100.32,424.215 2142.658,423.507 2153.452,433.78 2195.965,454.138 2206.76,464.411 2195.965,454.138 2185.139,443.69 
	2174.52,433.417 2163.725,422.971 2152.935,412.696 2142.104,402.25 2120.694,381.702 2099.248,360.981 2088.454,350.535 
	2088.107,329.468 "/>
<polyline fill="none" stroke="#010101" stroke-width="0.5" stroke-linecap="round" stroke-miterlimit="10" points="
	2098.902,1997.312 2098.902,1997.312 2077.453,1976.4 2087.937,1965.607 2076.764,1933.904 2065.798,1902.011 2043.448,1817.365 
	2053.203,1742.803 2062.58,1647.157 2061.159,1540.891 2038.85,1456.054 2037.257,1328.532 2025.22,1211.818 1981.668,1127.346 
	1969.424,1010.633 1925.146,862.389 1934.902,788 1943.929,670.924 1932.409,596.725 1952.612,511.352 1973.334,468.666 
	1994.226,447.063 1993.708,404.741 2004.152,393.93 2014.772,383.12 2025.395,393.568 2046.666,393.395 2067.908,393.048 
	2110.764,413.77 2153.281,413.232 2164.071,423.68 2206.76,444.399 2217.551,455.036 2206.76,444.399 2195.965,433.953 
	2185.346,423.507 2174.52,413.061 2163.725,402.423 2152.935,391.976 2131.484,371.083 2109.867,350 2099.248,339.552 
	2098.902,318.295 "/>
</svg>
